<svg width="486" height="486" viewBox="0 0 486 486" fill="none" xmlns="http://www.w3.org/2000/svg">
<g clip-path="url(#clip0_210_1166)">
<path d="M-0.000101805 2.60575C1.43907 2.60575 2.60575 1.43907 2.60575 -0.000101805C2.60575 -1.43928 1.43907 -2.60596 -0.000101805 -2.60596C-1.43928 -2.60596 -2.60596 -1.43928 -2.60596 -0.000101805C-2.60596 1.43907 -1.43928 2.60575 -0.000101805 2.60575Z" fill="#4F279B"/>
<path d="M40.4999 2.60575C41.9391 2.60575 43.1058 1.43907 43.1058 -0.000101805C43.1058 -1.43928 41.9391 -2.60596 40.4999 -2.60596C39.0607 -2.60596 37.894 -1.43928 37.894 -0.000101805C37.894 1.43907 39.0607 2.60575 40.4999 2.60575Z" fill="#4F279B"/>
<path d="M80.9999 2.60575C82.4391 2.60575 83.6058 1.43907 83.6058 -0.000101805C83.6058 -1.43928 82.4391 -2.60596 80.9999 -2.60596C79.5607 -2.60596 78.394 -1.43928 78.394 -0.000101805C78.394 1.43907 79.5607 2.60575 80.9999 2.60575Z" fill="#4F279B"/>
<path d="M121.5 2.60575C122.939 2.60575 124.106 1.43907 124.106 -0.000101805C124.106 -1.43928 122.939 -2.60596 121.5 -2.60596C120.061 -2.60596 118.894 -1.43928 118.894 -0.000101805C118.894 1.43907 120.061 2.60575 121.5 2.60575Z" fill="#4F279B"/>
<path d="M162 2.60575C163.439 2.60575 164.606 1.43907 164.606 -0.000101805C164.606 -1.43928 163.439 -2.60596 162 -2.60596C160.561 -2.60596 159.394 -1.43928 159.394 -0.000101805C159.394 1.43907 160.561 2.60575 162 2.60575Z" fill="#4F279B"/>
<path d="M202.5 2.60575C203.939 2.60575 205.106 1.43907 205.106 -0.000101805C205.106 -1.43928 203.939 -2.60596 202.5 -2.60596C201.061 -2.60596 199.894 -1.43928 199.894 -0.000101805C199.894 1.43907 201.061 2.60575 202.5 2.60575Z" fill="#4F279B"/>
<path d="M243 2.60575C244.439 2.60575 245.606 1.43907 245.606 -0.000101805C245.606 -1.43928 244.439 -2.60596 243 -2.60596C241.561 -2.60596 240.394 -1.43928 240.394 -0.000101805C240.394 1.43907 241.561 2.60575 243 2.60575Z" fill="#4F279B"/>
<path d="M283.5 2.60575C284.939 2.60575 286.106 1.43907 286.106 -0.000101805C286.106 -1.43928 284.939 -2.60596 283.5 -2.60596C282.061 -2.60596 280.894 -1.43928 280.894 -0.000101805C280.894 1.43907 282.061 2.60575 283.5 2.60575Z" fill="#4F279B"/>
<path d="M324 2.60575C325.439 2.60575 326.606 1.43907 326.606 -0.000101805C326.606 -1.43928 325.439 -2.60596 324 -2.60596C322.561 -2.60596 321.394 -1.43928 321.394 -0.000101805C321.394 1.43907 322.561 2.60575 324 2.60575Z" fill="#4F279B"/>
<path d="M364.5 2.60575C365.939 2.60575 367.106 1.43907 367.106 -0.000101805C367.106 -1.43928 365.939 -2.60596 364.5 -2.60596C363.061 -2.60596 361.894 -1.43928 361.894 -0.000101805C361.894 1.43907 363.061 2.60575 364.5 2.60575Z" fill="#4F279B"/>
<path d="M405 2.60575C406.439 2.60575 407.606 1.43907 407.606 -0.000101805C407.606 -1.43928 406.439 -2.60596 405 -2.60596C403.561 -2.60596 402.394 -1.43928 402.394 -0.000101805C402.394 1.43907 403.561 2.60575 405 2.60575Z" fill="#4F279B"/>
<path d="M445.5 2.60575C446.939 2.60575 448.106 1.43907 448.106 -0.000101805C448.106 -1.43928 446.939 -2.60596 445.5 -2.60596C444.061 -2.60596 442.894 -1.43928 442.894 -0.000101805C442.894 1.43907 444.061 2.60575 445.5 2.60575Z" fill="#4F279B"/>
<path d="M486 2.60575C487.439 2.60575 488.606 1.43907 488.606 -0.000101805C488.606 -1.43928 487.439 -2.60596 486 -2.60596C484.561 -2.60596 483.394 -1.43928 483.394 -0.000101805C483.394 1.43907 484.561 2.60575 486 2.60575Z" fill="#4F279B"/>
<path d="M-0.000101805 43.1058C1.43907 43.1058 2.60575 41.9391 2.60575 40.4999C2.60575 39.0607 1.43907 37.894 -0.000101805 37.894C-1.43928 37.894 -2.60596 39.0607 -2.60596 40.4999C-2.60596 41.9391 -1.43928 43.1058 -0.000101805 43.1058Z" fill="#4F279B"/>
<path d="M40.4999 43.1058C41.9391 43.1058 43.1058 41.9391 43.1058 40.4999C43.1058 39.0607 41.9391 37.894 40.4999 37.894C39.0607 37.894 37.894 39.0607 37.894 40.4999C37.894 41.9391 39.0607 43.1058 40.4999 43.1058Z" fill="#4F279B"/>
<path d="M80.9999 43.1058C82.4391 43.1058 83.6058 41.9391 83.6058 40.4999C83.6058 39.0607 82.4391 37.894 80.9999 37.894C79.5607 37.894 78.394 39.0607 78.394 40.4999C78.394 41.9391 79.5607 43.1058 80.9999 43.1058Z" fill="#4F279B"/>
<path d="M121.5 43.1058C122.939 43.1058 124.106 41.9391 124.106 40.4999C124.106 39.0607 122.939 37.894 121.5 37.894C120.061 37.894 118.894 39.0607 118.894 40.4999C118.894 41.9391 120.061 43.1058 121.5 43.1058Z" fill="#4F279B"/>
<path d="M162 43.1058C163.439 43.1058 164.606 41.9391 164.606 40.4999C164.606 39.0607 163.439 37.894 162 37.894C160.561 37.894 159.394 39.0607 159.394 40.4999C159.394 41.9391 160.561 43.1058 162 43.1058Z" fill="#4F279B"/>
<path d="M202.5 43.1058C203.939 43.1058 205.106 41.9391 205.106 40.4999C205.106 39.0607 203.939 37.894 202.5 37.894C201.061 37.894 199.894 39.0607 199.894 40.4999C199.894 41.9391 201.061 43.1058 202.5 43.1058Z" fill="#4F279B"/>
<path d="M243 43.1058C244.439 43.1058 245.606 41.9391 245.606 40.4999C245.606 39.0607 244.439 37.894 243 37.894C241.561 37.894 240.394 39.0607 240.394 40.4999C240.394 41.9391 241.561 43.1058 243 43.1058Z" fill="#4F279B"/>
<path d="M283.5 43.1058C284.939 43.1058 286.106 41.9391 286.106 40.4999C286.106 39.0607 284.939 37.894 283.5 37.894C282.061 37.894 280.894 39.0607 280.894 40.4999C280.894 41.9391 282.061 43.1058 283.5 43.1058Z" fill="#4F279B"/>
<path d="M324 43.1058C325.439 43.1058 326.606 41.9391 326.606 40.4999C326.606 39.0607 325.439 37.894 324 37.894C322.561 37.894 321.394 39.0607 321.394 40.4999C321.394 41.9391 322.561 43.1058 324 43.1058Z" fill="#4F279B"/>
<path d="M364.5 43.1058C365.939 43.1058 367.106 41.9391 367.106 40.4999C367.106 39.0607 365.939 37.894 364.5 37.894C363.061 37.894 361.894 39.0607 361.894 40.4999C361.894 41.9391 363.061 43.1058 364.5 43.1058Z" fill="#4F279B"/>
<path d="M405 43.1058C406.439 43.1058 407.606 41.9391 407.606 40.4999C407.606 39.0607 406.439 37.894 405 37.894C403.561 37.894 402.394 39.0607 402.394 40.4999C402.394 41.9391 403.561 43.1058 405 43.1058Z" fill="#4F279B"/>
<path d="M445.5 43.1058C446.939 43.1058 448.106 41.9391 448.106 40.4999C448.106 39.0607 446.939 37.894 445.5 37.894C444.061 37.894 442.894 39.0607 442.894 40.4999C442.894 41.9391 444.061 43.1058 445.5 43.1058Z" fill="#4F279B"/>
<path d="M486 43.1058C487.439 43.1058 488.606 41.9391 488.606 40.4999C488.606 39.0607 487.439 37.894 486 37.894C484.561 37.894 483.394 39.0607 483.394 40.4999C483.394 41.9391 484.561 43.1058 486 43.1058Z" fill="#4F279B"/>
<path d="M-0.000101805 83.6058C1.43907 83.6058 2.60575 82.4391 2.60575 80.9999C2.60575 79.5607 1.43907 78.394 -0.000101805 78.394C-1.43928 78.394 -2.60596 79.5607 -2.60596 80.9999C-2.60596 82.4391 -1.43928 83.6058 -0.000101805 83.6058Z" fill="#4F279B"/>
<path d="M40.4999 83.6058C41.9391 83.6058 43.1058 82.4391 43.1058 80.9999C43.1058 79.5607 41.9391 78.394 40.4999 78.394C39.0607 78.394 37.894 79.5607 37.894 80.9999C37.894 82.4391 39.0607 83.6058 40.4999 83.6058Z" fill="#4F279B"/>
<path d="M80.9999 83.6058C82.4391 83.6058 83.6058 82.4391 83.6058 80.9999C83.6058 79.5607 82.4391 78.394 80.9999 78.394C79.5607 78.394 78.394 79.5607 78.394 80.9999C78.394 82.4391 79.5607 83.6058 80.9999 83.6058Z" fill="#4F279B"/>
<path d="M121.5 83.6058C122.939 83.6058 124.106 82.4391 124.106 80.9999C124.106 79.5607 122.939 78.394 121.5 78.394C120.061 78.394 118.894 79.5607 118.894 80.9999C118.894 82.4391 120.061 83.6058 121.5 83.6058Z" fill="#4F279B"/>
<path d="M162 83.6058C163.439 83.6058 164.606 82.4391 164.606 80.9999C164.606 79.5607 163.439 78.394 162 78.394C160.561 78.394 159.394 79.5607 159.394 80.9999C159.394 82.4391 160.561 83.6058 162 83.6058Z" fill="#4F279B"/>
<path d="M202.5 83.6058C203.939 83.6058 205.106 82.4391 205.106 80.9999C205.106 79.5607 203.939 78.394 202.5 78.394C201.061 78.394 199.894 79.5607 199.894 80.9999C199.894 82.4391 201.061 83.6058 202.5 83.6058Z" fill="#4F279B"/>
<path d="M243 83.6058C244.439 83.6058 245.606 82.4391 245.606 80.9999C245.606 79.5607 244.439 78.394 243 78.394C241.561 78.394 240.394 79.5607 240.394 80.9999C240.394 82.4391 241.561 83.6058 243 83.6058Z" fill="#4F279B"/>
<path d="M283.5 83.6058C284.939 83.6058 286.106 82.4391 286.106 80.9999C286.106 79.5607 284.939 78.394 283.5 78.394C282.061 78.394 280.894 79.5607 280.894 80.9999C280.894 82.4391 282.061 83.6058 283.5 83.6058Z" fill="#4F279B"/>
<path d="M324 83.6058C325.439 83.6058 326.606 82.4391 326.606 80.9999C326.606 79.5607 325.439 78.394 324 78.394C322.561 78.394 321.394 79.5607 321.394 80.9999C321.394 82.4391 322.561 83.6058 324 83.6058Z" fill="#4F279B"/>
<path d="M364.5 83.6058C365.939 83.6058 367.106 82.4391 367.106 80.9999C367.106 79.5607 365.939 78.394 364.5 78.394C363.061 78.394 361.894 79.5607 361.894 80.9999C361.894 82.4391 363.061 83.6058 364.5 83.6058Z" fill="#4F279B"/>
<path d="M405 83.6058C406.439 83.6058 407.606 82.4391 407.606 80.9999C407.606 79.5607 406.439 78.394 405 78.394C403.561 78.394 402.394 79.5607 402.394 80.9999C402.394 82.4391 403.561 83.6058 405 83.6058Z" fill="#4F279B"/>
<path d="M445.5 83.6058C446.939 83.6058 448.106 82.4391 448.106 80.9999C448.106 79.5607 446.939 78.394 445.5 78.394C444.061 78.394 442.894 79.5607 442.894 80.9999C442.894 82.4391 444.061 83.6058 445.5 83.6058Z" fill="#4F279B"/>
<path d="M486 83.6058C487.439 83.6058 488.606 82.4391 488.606 80.9999C488.606 79.5607 487.439 78.394 486 78.394C484.561 78.394 483.394 79.5607 483.394 80.9999C483.394 82.4391 484.561 83.6058 486 83.6058Z" fill="#4F279B"/>
<path d="M-0.000101805 124.106C1.43907 124.106 2.60575 122.939 2.60575 121.5C2.60575 120.061 1.43907 118.894 -0.000101805 118.894C-1.43928 118.894 -2.60596 120.061 -2.60596 121.5C-2.60596 122.939 -1.43928 124.106 -0.000101805 124.106Z" fill="#4F279B"/>
<path d="M40.4999 124.106C41.9391 124.106 43.1058 122.939 43.1058 121.5C43.1058 120.061 41.9391 118.894 40.4999 118.894C39.0607 118.894 37.894 120.061 37.894 121.5C37.894 122.939 39.0607 124.106 40.4999 124.106Z" fill="#4F279B"/>
<path d="M80.9999 124.106C82.4391 124.106 83.6058 122.939 83.6058 121.5C83.6058 120.061 82.4391 118.894 80.9999 118.894C79.5607 118.894 78.394 120.061 78.394 121.5C78.394 122.939 79.5607 124.106 80.9999 124.106Z" fill="#4F279B"/>
<path d="M121.5 124.106C122.939 124.106 124.106 122.939 124.106 121.5C124.106 120.061 122.939 118.894 121.5 118.894C120.061 118.894 118.894 120.061 118.894 121.5C118.894 122.939 120.061 124.106 121.5 124.106Z" fill="#4F279B"/>
<path d="M162 124.106C163.439 124.106 164.606 122.939 164.606 121.5C164.606 120.061 163.439 118.894 162 118.894C160.561 118.894 159.394 120.061 159.394 121.5C159.394 122.939 160.561 124.106 162 124.106Z" fill="#4F279B"/>
<path d="M202.5 124.106C203.939 124.106 205.106 122.939 205.106 121.5C205.106 120.061 203.939 118.894 202.5 118.894C201.061 118.894 199.894 120.061 199.894 121.5C199.894 122.939 201.061 124.106 202.5 124.106Z" fill="#4F279B"/>
<path d="M243 124.106C244.439 124.106 245.606 122.939 245.606 121.5C245.606 120.061 244.439 118.894 243 118.894C241.561 118.894 240.394 120.061 240.394 121.5C240.394 122.939 241.561 124.106 243 124.106Z" fill="#4F279B"/>
<path d="M283.5 124.106C284.939 124.106 286.106 122.939 286.106 121.5C286.106 120.061 284.939 118.894 283.5 118.894C282.061 118.894 280.894 120.061 280.894 121.5C280.894 122.939 282.061 124.106 283.5 124.106Z" fill="#4F279B"/>
<path d="M324 124.106C325.439 124.106 326.606 122.939 326.606 121.5C326.606 120.061 325.439 118.894 324 118.894C322.561 118.894 321.394 120.061 321.394 121.5C321.394 122.939 322.561 124.106 324 124.106Z" fill="#4F279B"/>
<path d="M364.5 124.106C365.939 124.106 367.106 122.939 367.106 121.5C367.106 120.061 365.939 118.894 364.5 118.894C363.061 118.894 361.894 120.061 361.894 121.5C361.894 122.939 363.061 124.106 364.5 124.106Z" fill="#4F279B"/>
<path d="M405 124.106C406.439 124.106 407.606 122.939 407.606 121.5C407.606 120.061 406.439 118.894 405 118.894C403.561 118.894 402.394 120.061 402.394 121.5C402.394 122.939 403.561 124.106 405 124.106Z" fill="#4F279B"/>
<path d="M445.5 124.106C446.939 124.106 448.106 122.939 448.106 121.5C448.106 120.061 446.939 118.894 445.5 118.894C444.061 118.894 442.894 120.061 442.894 121.5C442.894 122.939 444.061 124.106 445.5 124.106Z" fill="#4F279B"/>
<path d="M486 124.106C487.439 124.106 488.606 122.939 488.606 121.5C488.606 120.061 487.439 118.894 486 118.894C484.561 118.894 483.394 120.061 483.394 121.5C483.394 122.939 484.561 124.106 486 124.106Z" fill="#4F279B"/>
<path d="M-0.000101805 164.606C1.43907 164.606 2.60575 163.439 2.60575 162C2.60575 160.561 1.43907 159.394 -0.000101805 159.394C-1.43928 159.394 -2.60596 160.561 -2.60596 162C-2.60596 163.439 -1.43928 164.606 -0.000101805 164.606Z" fill="#4F279B"/>
<path d="M40.4999 164.606C41.9391 164.606 43.1058 163.439 43.1058 162C43.1058 160.561 41.9391 159.394 40.4999 159.394C39.0607 159.394 37.894 160.561 37.894 162C37.894 163.439 39.0607 164.606 40.4999 164.606Z" fill="#4F279B"/>
<path d="M80.9999 164.606C82.4391 164.606 83.6058 163.439 83.6058 162C83.6058 160.561 82.4391 159.394 80.9999 159.394C79.5607 159.394 78.394 160.561 78.394 162C78.394 163.439 79.5607 164.606 80.9999 164.606Z" fill="#4F279B"/>
<path d="M121.5 164.606C122.939 164.606 124.106 163.439 124.106 162C124.106 160.561 122.939 159.394 121.5 159.394C120.061 159.394 118.894 160.561 118.894 162C118.894 163.439 120.061 164.606 121.5 164.606Z" fill="#4F279B"/>
<path d="M162 164.606C163.439 164.606 164.606 163.439 164.606 162C164.606 160.561 163.439 159.394 162 159.394C160.561 159.394 159.394 160.561 159.394 162C159.394 163.439 160.561 164.606 162 164.606Z" fill="#4F279B"/>
<path d="M202.5 164.606C203.939 164.606 205.106 163.439 205.106 162C205.106 160.561 203.939 159.394 202.5 159.394C201.061 159.394 199.894 160.561 199.894 162C199.894 163.439 201.061 164.606 202.5 164.606Z" fill="#4F279B"/>
<path d="M243 164.606C244.439 164.606 245.606 163.439 245.606 162C245.606 160.561 244.439 159.394 243 159.394C241.561 159.394 240.394 160.561 240.394 162C240.394 163.439 241.561 164.606 243 164.606Z" fill="#4F279B"/>
<path d="M283.5 164.606C284.939 164.606 286.106 163.439 286.106 162C286.106 160.561 284.939 159.394 283.5 159.394C282.061 159.394 280.894 160.561 280.894 162C280.894 163.439 282.061 164.606 283.5 164.606Z" fill="#4F279B"/>
<path d="M324 164.606C325.439 164.606 326.606 163.439 326.606 162C326.606 160.561 325.439 159.394 324 159.394C322.561 159.394 321.394 160.561 321.394 162C321.394 163.439 322.561 164.606 324 164.606Z" fill="#4F279B"/>
<path d="M364.5 164.606C365.939 164.606 367.106 163.439 367.106 162C367.106 160.561 365.939 159.394 364.5 159.394C363.061 159.394 361.894 160.561 361.894 162C361.894 163.439 363.061 164.606 364.5 164.606Z" fill="#4F279B"/>
<path d="M405 164.606C406.439 164.606 407.606 163.439 407.606 162C407.606 160.561 406.439 159.394 405 159.394C403.561 159.394 402.394 160.561 402.394 162C402.394 163.439 403.561 164.606 405 164.606Z" fill="#4F279B"/>
<path d="M445.5 164.606C446.939 164.606 448.106 163.439 448.106 162C448.106 160.561 446.939 159.394 445.5 159.394C444.061 159.394 442.894 160.561 442.894 162C442.894 163.439 444.061 164.606 445.5 164.606Z" fill="#4F279B"/>
<path d="M486 164.606C487.439 164.606 488.606 163.439 488.606 162C488.606 160.561 487.439 159.394 486 159.394C484.561 159.394 483.394 160.561 483.394 162C483.394 163.439 484.561 164.606 486 164.606Z" fill="#4F279B"/>
<path d="M-0.000101805 205.106C1.43907 205.106 2.60575 203.939 2.60575 202.5C2.60575 201.061 1.43907 199.894 -0.000101805 199.894C-1.43928 199.894 -2.60596 201.061 -2.60596 202.5C-2.60596 203.939 -1.43928 205.106 -0.000101805 205.106Z" fill="#4F279B"/>
<path d="M40.4999 205.106C41.9391 205.106 43.1058 203.939 43.1058 202.5C43.1058 201.061 41.9391 199.894 40.4999 199.894C39.0607 199.894 37.894 201.061 37.894 202.5C37.894 203.939 39.0607 205.106 40.4999 205.106Z" fill="#4F279B"/>
<path d="M80.9999 205.106C82.4391 205.106 83.6058 203.939 83.6058 202.5C83.6058 201.061 82.4391 199.894 80.9999 199.894C79.5607 199.894 78.394 201.061 78.394 202.5C78.394 203.939 79.5607 205.106 80.9999 205.106Z" fill="#4F279B"/>
<path d="M121.5 205.106C122.939 205.106 124.106 203.939 124.106 202.5C124.106 201.061 122.939 199.894 121.5 199.894C120.061 199.894 118.894 201.061 118.894 202.5C118.894 203.939 120.061 205.106 121.5 205.106Z" fill="#4F279B"/>
<path d="M162 205.106C163.439 205.106 164.606 203.939 164.606 202.5C164.606 201.061 163.439 199.894 162 199.894C160.561 199.894 159.394 201.061 159.394 202.5C159.394 203.939 160.561 205.106 162 205.106Z" fill="#4F279B"/>
<path d="M202.5 205.106C203.939 205.106 205.106 203.939 205.106 202.5C205.106 201.061 203.939 199.894 202.5 199.894C201.061 199.894 199.894 201.061 199.894 202.5C199.894 203.939 201.061 205.106 202.5 205.106Z" fill="#4F279B"/>
<path d="M243 205.106C244.439 205.106 245.606 203.939 245.606 202.5C245.606 201.061 244.439 199.894 243 199.894C241.561 199.894 240.394 201.061 240.394 202.5C240.394 203.939 241.561 205.106 243 205.106Z" fill="#4F279B"/>
<path d="M283.5 205.106C284.939 205.106 286.106 203.939 286.106 202.5C286.106 201.061 284.939 199.894 283.5 199.894C282.061 199.894 280.894 201.061 280.894 202.5C280.894 203.939 282.061 205.106 283.5 205.106Z" fill="#4F279B"/>
<path d="M324 205.106C325.439 205.106 326.606 203.939 326.606 202.5C326.606 201.061 325.439 199.894 324 199.894C322.561 199.894 321.394 201.061 321.394 202.5C321.394 203.939 322.561 205.106 324 205.106Z" fill="#4F279B"/>
<path d="M364.5 205.106C365.939 205.106 367.106 203.939 367.106 202.5C367.106 201.061 365.939 199.894 364.5 199.894C363.061 199.894 361.894 201.061 361.894 202.5C361.894 203.939 363.061 205.106 364.5 205.106Z" fill="#4F279B"/>
<path d="M405 205.106C406.439 205.106 407.606 203.939 407.606 202.5C407.606 201.061 406.439 199.894 405 199.894C403.561 199.894 402.394 201.061 402.394 202.5C402.394 203.939 403.561 205.106 405 205.106Z" fill="#4F279B"/>
<path d="M445.5 205.106C446.939 205.106 448.106 203.939 448.106 202.5C448.106 201.061 446.939 199.894 445.5 199.894C444.061 199.894 442.894 201.061 442.894 202.5C442.894 203.939 444.061 205.106 445.5 205.106Z" fill="#4F279B"/>
<path d="M486 205.106C487.439 205.106 488.606 203.939 488.606 202.5C488.606 201.061 487.439 199.894 486 199.894C484.561 199.894 483.394 201.061 483.394 202.5C483.394 203.939 484.561 205.106 486 205.106Z" fill="#4F279B"/>
<path d="M-0.000101805 245.606C1.43907 245.606 2.60575 244.439 2.60575 243C2.60575 241.561 1.43907 240.394 -0.000101805 240.394C-1.43928 240.394 -2.60596 241.561 -2.60596 243C-2.60596 244.439 -1.43928 245.606 -0.000101805 245.606Z" fill="#4F279B"/>
<path d="M40.4999 245.606C41.9391 245.606 43.1058 244.439 43.1058 243C43.1058 241.561 41.9391 240.394 40.4999 240.394C39.0607 240.394 37.894 241.561 37.894 243C37.894 244.439 39.0607 245.606 40.4999 245.606Z" fill="#4F279B"/>
<path d="M80.9999 245.606C82.4391 245.606 83.6058 244.439 83.6058 243C83.6058 241.561 82.4391 240.394 80.9999 240.394C79.5607 240.394 78.394 241.561 78.394 243C78.394 244.439 79.5607 245.606 80.9999 245.606Z" fill="#4F279B"/>
<path d="M121.5 245.606C122.939 245.606 124.106 244.439 124.106 243C124.106 241.561 122.939 240.394 121.5 240.394C120.061 240.394 118.894 241.561 118.894 243C118.894 244.439 120.061 245.606 121.5 245.606Z" fill="#4F279B"/>
<path d="M162 245.606C163.439 245.606 164.606 244.439 164.606 243C164.606 241.561 163.439 240.394 162 240.394C160.561 240.394 159.394 241.561 159.394 243C159.394 244.439 160.561 245.606 162 245.606Z" fill="#4F279B"/>
<path d="M202.5 245.606C203.939 245.606 205.106 244.439 205.106 243C205.106 241.561 203.939 240.394 202.5 240.394C201.061 240.394 199.894 241.561 199.894 243C199.894 244.439 201.061 245.606 202.5 245.606Z" fill="#4F279B"/>
<path d="M243 245.606C244.439 245.606 245.606 244.439 245.606 243C245.606 241.561 244.439 240.394 243 240.394C241.561 240.394 240.394 241.561 240.394 243C240.394 244.439 241.561 245.606 243 245.606Z" fill="#4F279B"/>
<path d="M283.5 245.606C284.939 245.606 286.106 244.439 286.106 243C286.106 241.561 284.939 240.394 283.5 240.394C282.061 240.394 280.894 241.561 280.894 243C280.894 244.439 282.061 245.606 283.5 245.606Z" fill="#4F279B"/>
<path d="M324 245.606C325.439 245.606 326.606 244.439 326.606 243C326.606 241.561 325.439 240.394 324 240.394C322.561 240.394 321.394 241.561 321.394 243C321.394 244.439 322.561 245.606 324 245.606Z" fill="#4F279B"/>
<path d="M364.5 245.606C365.939 245.606 367.106 244.439 367.106 243C367.106 241.561 365.939 240.394 364.5 240.394C363.061 240.394 361.894 241.561 361.894 243C361.894 244.439 363.061 245.606 364.5 245.606Z" fill="#4F279B"/>
<path d="M405 245.606C406.439 245.606 407.606 244.439 407.606 243C407.606 241.561 406.439 240.394 405 240.394C403.561 240.394 402.394 241.561 402.394 243C402.394 244.439 403.561 245.606 405 245.606Z" fill="#4F279B"/>
<path d="M445.5 245.606C446.939 245.606 448.106 244.439 448.106 243C448.106 241.561 446.939 240.394 445.5 240.394C444.061 240.394 442.894 241.561 442.894 243C442.894 244.439 444.061 245.606 445.5 245.606Z" fill="#4F279B"/>
<path d="M486 245.606C487.439 245.606 488.606 244.439 488.606 243C488.606 241.561 487.439 240.394 486 240.394C484.561 240.394 483.394 241.561 483.394 243C483.394 244.439 484.561 245.606 486 245.606Z" fill="#4F279B"/>
<path d="M-0.000101805 286.106C1.43907 286.106 2.60575 284.939 2.60575 283.5C2.60575 282.061 1.43907 280.894 -0.000101805 280.894C-1.43928 280.894 -2.60596 282.061 -2.60596 283.5C-2.60596 284.939 -1.43928 286.106 -0.000101805 286.106Z" fill="#4F279B"/>
<path d="M40.4999 286.106C41.9391 286.106 43.1058 284.939 43.1058 283.5C43.1058 282.061 41.9391 280.894 40.4999 280.894C39.0607 280.894 37.894 282.061 37.894 283.5C37.894 284.939 39.0607 286.106 40.4999 286.106Z" fill="#4F279B"/>
<path d="M80.9999 286.106C82.4391 286.106 83.6058 284.939 83.6058 283.5C83.6058 282.061 82.4391 280.894 80.9999 280.894C79.5607 280.894 78.394 282.061 78.394 283.5C78.394 284.939 79.5607 286.106 80.9999 286.106Z" fill="#4F279B"/>
<path d="M121.5 286.106C122.939 286.106 124.106 284.939 124.106 283.5C124.106 282.061 122.939 280.894 121.5 280.894C120.061 280.894 118.894 282.061 118.894 283.5C118.894 284.939 120.061 286.106 121.5 286.106Z" fill="#4F279B"/>
<path d="M162 286.106C163.439 286.106 164.606 284.939 164.606 283.5C164.606 282.061 163.439 280.894 162 280.894C160.561 280.894 159.394 282.061 159.394 283.5C159.394 284.939 160.561 286.106 162 286.106Z" fill="#4F279B"/>
<path d="M202.5 286.106C203.939 286.106 205.106 284.939 205.106 283.5C205.106 282.061 203.939 280.894 202.5 280.894C201.061 280.894 199.894 282.061 199.894 283.5C199.894 284.939 201.061 286.106 202.5 286.106Z" fill="#4F279B"/>
<path d="M243 286.106C244.439 286.106 245.606 284.939 245.606 283.5C245.606 282.061 244.439 280.894 243 280.894C241.561 280.894 240.394 282.061 240.394 283.5C240.394 284.939 241.561 286.106 243 286.106Z" fill="#4F279B"/>
<path d="M283.5 286.106C284.939 286.106 286.106 284.939 286.106 283.5C286.106 282.061 284.939 280.894 283.5 280.894C282.061 280.894 280.894 282.061 280.894 283.5C280.894 284.939 282.061 286.106 283.5 286.106Z" fill="#4F279B"/>
<path d="M324 286.106C325.439 286.106 326.606 284.939 326.606 283.5C326.606 282.061 325.439 280.894 324 280.894C322.561 280.894 321.394 282.061 321.394 283.5C321.394 284.939 322.561 286.106 324 286.106Z" fill="#4F279B"/>
<path d="M364.5 286.106C365.939 286.106 367.106 284.939 367.106 283.5C367.106 282.061 365.939 280.894 364.5 280.894C363.061 280.894 361.894 282.061 361.894 283.5C361.894 284.939 363.061 286.106 364.5 286.106Z" fill="#4F279B"/>
<path d="M405 286.106C406.439 286.106 407.606 284.939 407.606 283.5C407.606 282.061 406.439 280.894 405 280.894C403.561 280.894 402.394 282.061 402.394 283.5C402.394 284.939 403.561 286.106 405 286.106Z" fill="#4F279B"/>
<path d="M445.5 286.106C446.939 286.106 448.106 284.939 448.106 283.5C448.106 282.061 446.939 280.894 445.5 280.894C444.061 280.894 442.894 282.061 442.894 283.5C442.894 284.939 444.061 286.106 445.5 286.106Z" fill="#4F279B"/>
<path d="M486 286.106C487.439 286.106 488.606 284.939 488.606 283.5C488.606 282.061 487.439 280.894 486 280.894C484.561 280.894 483.394 282.061 483.394 283.5C483.394 284.939 484.561 286.106 486 286.106Z" fill="#4F279B"/>
<path d="M-0.000101805 326.606C1.43907 326.606 2.60575 325.439 2.60575 324C2.60575 322.561 1.43907 321.394 -0.000101805 321.394C-1.43928 321.394 -2.60596 322.561 -2.60596 324C-2.60596 325.439 -1.43928 326.606 -0.000101805 326.606Z" fill="#4F279B"/>
<path d="M40.4999 326.606C41.9391 326.606 43.1058 325.439 43.1058 324C43.1058 322.561 41.9391 321.394 40.4999 321.394C39.0607 321.394 37.894 322.561 37.894 324C37.894 325.439 39.0607 326.606 40.4999 326.606Z" fill="#4F279B"/>
<path d="M80.9999 326.606C82.4391 326.606 83.6058 325.439 83.6058 324C83.6058 322.561 82.4391 321.394 80.9999 321.394C79.5607 321.394 78.394 322.561 78.394 324C78.394 325.439 79.5607 326.606 80.9999 326.606Z" fill="#4F279B"/>
<path d="M121.5 326.606C122.939 326.606 124.106 325.439 124.106 324C124.106 322.561 122.939 321.394 121.5 321.394C120.061 321.394 118.894 322.561 118.894 324C118.894 325.439 120.061 326.606 121.5 326.606Z" fill="#4F279B"/>
<path d="M162 326.606C163.439 326.606 164.606 325.439 164.606 324C164.606 322.561 163.439 321.394 162 321.394C160.561 321.394 159.394 322.561 159.394 324C159.394 325.439 160.561 326.606 162 326.606Z" fill="#4F279B"/>
<path d="M202.5 326.606C203.939 326.606 205.106 325.439 205.106 324C205.106 322.561 203.939 321.394 202.5 321.394C201.061 321.394 199.894 322.561 199.894 324C199.894 325.439 201.061 326.606 202.5 326.606Z" fill="#4F279B"/>
<path d="M243 326.606C244.439 326.606 245.606 325.439 245.606 324C245.606 322.561 244.439 321.394 243 321.394C241.561 321.394 240.394 322.561 240.394 324C240.394 325.439 241.561 326.606 243 326.606Z" fill="#4F279B"/>
<path d="M283.5 326.606C284.939 326.606 286.106 325.439 286.106 324C286.106 322.561 284.939 321.394 283.5 321.394C282.061 321.394 280.894 322.561 280.894 324C280.894 325.439 282.061 326.606 283.5 326.606Z" fill="#4F279B"/>
<path d="M324 326.606C325.439 326.606 326.606 325.439 326.606 324C326.606 322.561 325.439 321.394 324 321.394C322.561 321.394 321.394 322.561 321.394 324C321.394 325.439 322.561 326.606 324 326.606Z" fill="#4F279B"/>
<path d="M364.5 326.606C365.939 326.606 367.106 325.439 367.106 324C367.106 322.561 365.939 321.394 364.5 321.394C363.061 321.394 361.894 322.561 361.894 324C361.894 325.439 363.061 326.606 364.5 326.606Z" fill="#4F279B"/>
<path d="M405 326.606C406.439 326.606 407.606 325.439 407.606 324C407.606 322.561 406.439 321.394 405 321.394C403.561 321.394 402.394 322.561 402.394 324C402.394 325.439 403.561 326.606 405 326.606Z" fill="#4F279B"/>
<path d="M445.5 326.606C446.939 326.606 448.106 325.439 448.106 324C448.106 322.561 446.939 321.394 445.5 321.394C444.061 321.394 442.894 322.561 442.894 324C442.894 325.439 444.061 326.606 445.5 326.606Z" fill="#4F279B"/>
<path d="M486 326.606C487.439 326.606 488.606 325.439 488.606 324C488.606 322.561 487.439 321.394 486 321.394C484.561 321.394 483.394 322.561 483.394 324C483.394 325.439 484.561 326.606 486 326.606Z" fill="#4F279B"/>
<path d="M-0.000101805 367.106C1.43907 367.106 2.60575 365.939 2.60575 364.5C2.60575 363.061 1.43907 361.894 -0.000101805 361.894C-1.43928 361.894 -2.60596 363.061 -2.60596 364.5C-2.60596 365.939 -1.43928 367.106 -0.000101805 367.106Z" fill="#4F279B"/>
<path d="M40.4999 367.106C41.9391 367.106 43.1058 365.939 43.1058 364.5C43.1058 363.061 41.9391 361.894 40.4999 361.894C39.0607 361.894 37.894 363.061 37.894 364.5C37.894 365.939 39.0607 367.106 40.4999 367.106Z" fill="#4F279B"/>
<path d="M80.9999 367.106C82.4391 367.106 83.6058 365.939 83.6058 364.5C83.6058 363.061 82.4391 361.894 80.9999 361.894C79.5607 361.894 78.394 363.061 78.394 364.5C78.394 365.939 79.5607 367.106 80.9999 367.106Z" fill="#4F279B"/>
<path d="M121.5 367.106C122.939 367.106 124.106 365.939 124.106 364.5C124.106 363.061 122.939 361.894 121.5 361.894C120.061 361.894 118.894 363.061 118.894 364.5C118.894 365.939 120.061 367.106 121.5 367.106Z" fill="#4F279B"/>
<path d="M162 367.106C163.439 367.106 164.606 365.939 164.606 364.5C164.606 363.061 163.439 361.894 162 361.894C160.561 361.894 159.394 363.061 159.394 364.5C159.394 365.939 160.561 367.106 162 367.106Z" fill="#4F279B"/>
<path d="M202.5 367.106C203.939 367.106 205.106 365.939 205.106 364.5C205.106 363.061 203.939 361.894 202.5 361.894C201.061 361.894 199.894 363.061 199.894 364.5C199.894 365.939 201.061 367.106 202.5 367.106Z" fill="#4F279B"/>
<path d="M243 367.106C244.439 367.106 245.606 365.939 245.606 364.5C245.606 363.061 244.439 361.894 243 361.894C241.561 361.894 240.394 363.061 240.394 364.5C240.394 365.939 241.561 367.106 243 367.106Z" fill="#4F279B"/>
<path d="M283.5 367.106C284.939 367.106 286.106 365.939 286.106 364.5C286.106 363.061 284.939 361.894 283.5 361.894C282.061 361.894 280.894 363.061 280.894 364.5C280.894 365.939 282.061 367.106 283.5 367.106Z" fill="#4F279B"/>
<path d="M324 367.106C325.439 367.106 326.606 365.939 326.606 364.5C326.606 363.061 325.439 361.894 324 361.894C322.561 361.894 321.394 363.061 321.394 364.5C321.394 365.939 322.561 367.106 324 367.106Z" fill="#4F279B"/>
<path d="M364.5 367.106C365.939 367.106 367.106 365.939 367.106 364.5C367.106 363.061 365.939 361.894 364.5 361.894C363.061 361.894 361.894 363.061 361.894 364.5C361.894 365.939 363.061 367.106 364.5 367.106Z" fill="#4F279B"/>
<path d="M405 367.106C406.439 367.106 407.606 365.939 407.606 364.5C407.606 363.061 406.439 361.894 405 361.894C403.561 361.894 402.394 363.061 402.394 364.5C402.394 365.939 403.561 367.106 405 367.106Z" fill="#4F279B"/>
<path d="M445.5 367.106C446.939 367.106 448.106 365.939 448.106 364.5C448.106 363.061 446.939 361.894 445.5 361.894C444.061 361.894 442.894 363.061 442.894 364.5C442.894 365.939 444.061 367.106 445.5 367.106Z" fill="#4F279B"/>
<path d="M486 367.106C487.439 367.106 488.606 365.939 488.606 364.5C488.606 363.061 487.439 361.894 486 361.894C484.561 361.894 483.394 363.061 483.394 364.5C483.394 365.939 484.561 367.106 486 367.106Z" fill="#4F279B"/>
<path d="M-0.000101805 407.606C1.43907 407.606 2.60575 406.439 2.60575 405C2.60575 403.561 1.43907 402.394 -0.000101805 402.394C-1.43928 402.394 -2.60596 403.561 -2.60596 405C-2.60596 406.439 -1.43928 407.606 -0.000101805 407.606Z" fill="#4F279B"/>
<path d="M40.4999 407.606C41.9391 407.606 43.1058 406.439 43.1058 405C43.1058 403.561 41.9391 402.394 40.4999 402.394C39.0607 402.394 37.894 403.561 37.894 405C37.894 406.439 39.0607 407.606 40.4999 407.606Z" fill="#4F279B"/>
<path d="M80.9999 407.606C82.4391 407.606 83.6058 406.439 83.6058 405C83.6058 403.561 82.4391 402.394 80.9999 402.394C79.5607 402.394 78.394 403.561 78.394 405C78.394 406.439 79.5607 407.606 80.9999 407.606Z" fill="#4F279B"/>
<path d="M121.5 407.606C122.939 407.606 124.106 406.439 124.106 405C124.106 403.561 122.939 402.394 121.5 402.394C120.061 402.394 118.894 403.561 118.894 405C118.894 406.439 120.061 407.606 121.5 407.606Z" fill="#4F279B"/>
<path d="M162 407.606C163.439 407.606 164.606 406.439 164.606 405C164.606 403.561 163.439 402.394 162 402.394C160.561 402.394 159.394 403.561 159.394 405C159.394 406.439 160.561 407.606 162 407.606Z" fill="#4F279B"/>
<path d="M202.5 407.606C203.939 407.606 205.106 406.439 205.106 405C205.106 403.561 203.939 402.394 202.5 402.394C201.061 402.394 199.894 403.561 199.894 405C199.894 406.439 201.061 407.606 202.5 407.606Z" fill="#4F279B"/>
<path d="M243 407.606C244.439 407.606 245.606 406.439 245.606 405C245.606 403.561 244.439 402.394 243 402.394C241.561 402.394 240.394 403.561 240.394 405C240.394 406.439 241.561 407.606 243 407.606Z" fill="#4F279B"/>
<path d="M283.5 407.606C284.939 407.606 286.106 406.439 286.106 405C286.106 403.561 284.939 402.394 283.5 402.394C282.061 402.394 280.894 403.561 280.894 405C280.894 406.439 282.061 407.606 283.5 407.606Z" fill="#4F279B"/>
<path d="M324 407.606C325.439 407.606 326.606 406.439 326.606 405C326.606 403.561 325.439 402.394 324 402.394C322.561 402.394 321.394 403.561 321.394 405C321.394 406.439 322.561 407.606 324 407.606Z" fill="#4F279B"/>
<path d="M364.5 407.606C365.939 407.606 367.106 406.439 367.106 405C367.106 403.561 365.939 402.394 364.5 402.394C363.061 402.394 361.894 403.561 361.894 405C361.894 406.439 363.061 407.606 364.5 407.606Z" fill="#4F279B"/>
<path d="M405 407.606C406.439 407.606 407.606 406.439 407.606 405C407.606 403.561 406.439 402.394 405 402.394C403.561 402.394 402.394 403.561 402.394 405C402.394 406.439 403.561 407.606 405 407.606Z" fill="#4F279B"/>
<path d="M445.5 407.606C446.939 407.606 448.106 406.439 448.106 405C448.106 403.561 446.939 402.394 445.5 402.394C444.061 402.394 442.894 403.561 442.894 405C442.894 406.439 444.061 407.606 445.5 407.606Z" fill="#4F279B"/>
<path d="M486 407.606C487.439 407.606 488.606 406.439 488.606 405C488.606 403.561 487.439 402.394 486 402.394C484.561 402.394 483.394 403.561 483.394 405C483.394 406.439 484.561 407.606 486 407.606Z" fill="#4F279B"/>
<path d="M-0.000101805 448.106C1.43907 448.106 2.60575 446.939 2.60575 445.5C2.60575 444.061 1.43907 442.894 -0.000101805 442.894C-1.43928 442.894 -2.60596 444.061 -2.60596 445.5C-2.60596 446.939 -1.43928 448.106 -0.000101805 448.106Z" fill="#4F279B"/>
<path d="M40.4999 448.106C41.9391 448.106 43.1058 446.939 43.1058 445.5C43.1058 444.061 41.9391 442.894 40.4999 442.894C39.0607 442.894 37.894 444.061 37.894 445.5C37.894 446.939 39.0607 448.106 40.4999 448.106Z" fill="#4F279B"/>
<path d="M80.9999 448.106C82.4391 448.106 83.6058 446.939 83.6058 445.5C83.6058 444.061 82.4391 442.894 80.9999 442.894C79.5607 442.894 78.394 444.061 78.394 445.5C78.394 446.939 79.5607 448.106 80.9999 448.106Z" fill="#4F279B"/>
<path d="M121.5 448.106C122.939 448.106 124.106 446.939 124.106 445.5C124.106 444.061 122.939 442.894 121.5 442.894C120.061 442.894 118.894 444.061 118.894 445.5C118.894 446.939 120.061 448.106 121.5 448.106Z" fill="#4F279B"/>
<path d="M162 448.106C163.439 448.106 164.606 446.939 164.606 445.5C164.606 444.061 163.439 442.894 162 442.894C160.561 442.894 159.394 444.061 159.394 445.5C159.394 446.939 160.561 448.106 162 448.106Z" fill="#4F279B"/>
<path d="M202.5 448.106C203.939 448.106 205.106 446.939 205.106 445.5C205.106 444.061 203.939 442.894 202.5 442.894C201.061 442.894 199.894 444.061 199.894 445.5C199.894 446.939 201.061 448.106 202.5 448.106Z" fill="#4F279B"/>
<path d="M243 448.106C244.439 448.106 245.606 446.939 245.606 445.5C245.606 444.061 244.439 442.894 243 442.894C241.561 442.894 240.394 444.061 240.394 445.5C240.394 446.939 241.561 448.106 243 448.106Z" fill="#4F279B"/>
<path d="M283.5 448.106C284.939 448.106 286.106 446.939 286.106 445.5C286.106 444.061 284.939 442.894 283.5 442.894C282.061 442.894 280.894 444.061 280.894 445.5C280.894 446.939 282.061 448.106 283.5 448.106Z" fill="#4F279B"/>
<path d="M324 448.106C325.439 448.106 326.606 446.939 326.606 445.5C326.606 444.061 325.439 442.894 324 442.894C322.561 442.894 321.394 444.061 321.394 445.5C321.394 446.939 322.561 448.106 324 448.106Z" fill="#4F279B"/>
<path d="M364.5 448.106C365.939 448.106 367.106 446.939 367.106 445.5C367.106 444.061 365.939 442.894 364.5 442.894C363.061 442.894 361.894 444.061 361.894 445.5C361.894 446.939 363.061 448.106 364.5 448.106Z" fill="#4F279B"/>
<path d="M405 448.106C406.439 448.106 407.606 446.939 407.606 445.5C407.606 444.061 406.439 442.894 405 442.894C403.561 442.894 402.394 444.061 402.394 445.5C402.394 446.939 403.561 448.106 405 448.106Z" fill="#4F279B"/>
<path d="M445.5 448.106C446.939 448.106 448.106 446.939 448.106 445.5C448.106 444.061 446.939 442.894 445.5 442.894C444.061 442.894 442.894 444.061 442.894 445.5C442.894 446.939 444.061 448.106 445.5 448.106Z" fill="#4F279B"/>
<path d="M486 448.106C487.439 448.106 488.606 446.939 488.606 445.5C488.606 444.061 487.439 442.894 486 442.894C484.561 442.894 483.394 444.061 483.394 445.5C483.394 446.939 484.561 448.106 486 448.106Z" fill="#4F279B"/>
<path d="M-0.000101805 488.606C1.43907 488.606 2.60575 487.439 2.60575 486C2.60575 484.561 1.43907 483.394 -0.000101805 483.394C-1.43928 483.394 -2.60596 484.561 -2.60596 486C-2.60596 487.439 -1.43928 488.606 -0.000101805 488.606Z" fill="#4F279B"/>
<path d="M40.4999 488.606C41.9391 488.606 43.1058 487.439 43.1058 486C43.1058 484.561 41.9391 483.394 40.4999 483.394C39.0607 483.394 37.894 484.561 37.894 486C37.894 487.439 39.0607 488.606 40.4999 488.606Z" fill="#4F279B"/>
<path d="M80.9999 488.606C82.4391 488.606 83.6058 487.439 83.6058 486C83.6058 484.561 82.4391 483.394 80.9999 483.394C79.5607 483.394 78.394 484.561 78.394 486C78.394 487.439 79.5607 488.606 80.9999 488.606Z" fill="#4F279B"/>
<path d="M121.5 488.606C122.939 488.606 124.106 487.439 124.106 486C124.106 484.561 122.939 483.394 121.5 483.394C120.061 483.394 118.894 484.561 118.894 486C118.894 487.439 120.061 488.606 121.5 488.606Z" fill="#4F279B"/>
<path d="M162 488.606C163.439 488.606 164.606 487.439 164.606 486C164.606 484.561 163.439 483.394 162 483.394C160.561 483.394 159.394 484.561 159.394 486C159.394 487.439 160.561 488.606 162 488.606Z" fill="#4F279B"/>
<path d="M202.5 488.606C203.939 488.606 205.106 487.439 205.106 486C205.106 484.561 203.939 483.394 202.5 483.394C201.061 483.394 199.894 484.561 199.894 486C199.894 487.439 201.061 488.606 202.5 488.606Z" fill="#4F279B"/>
<path d="M243 488.606C244.439 488.606 245.606 487.439 245.606 486C245.606 484.561 244.439 483.394 243 483.394C241.561 483.394 240.394 484.561 240.394 486C240.394 487.439 241.561 488.606 243 488.606Z" fill="#4F279B"/>
<path d="M283.5 488.606C284.939 488.606 286.106 487.439 286.106 486C286.106 484.561 284.939 483.394 283.5 483.394C282.061 483.394 280.894 484.561 280.894 486C280.894 487.439 282.061 488.606 283.5 488.606Z" fill="#4F279B"/>
<path d="M324 488.606C325.439 488.606 326.606 487.439 326.606 486C326.606 484.561 325.439 483.394 324 483.394C322.561 483.394 321.394 484.561 321.394 486C321.394 487.439 322.561 488.606 324 488.606Z" fill="#4F279B"/>
<path d="M364.5 488.606C365.939 488.606 367.106 487.439 367.106 486C367.106 484.561 365.939 483.394 364.5 483.394C363.061 483.394 361.894 484.561 361.894 486C361.894 487.439 363.061 488.606 364.5 488.606Z" fill="#4F279B"/>
<path d="M405 488.606C406.439 488.606 407.606 487.439 407.606 486C407.606 484.561 406.439 483.394 405 483.394C403.561 483.394 402.394 484.561 402.394 486C402.394 487.439 403.561 488.606 405 488.606Z" fill="#4F279B"/>
<path d="M445.5 488.606C446.939 488.606 448.106 487.439 448.106 486C448.106 484.561 446.939 483.394 445.5 483.394C444.061 483.394 442.894 484.561 442.894 486C442.894 487.439 444.061 488.606 445.5 488.606Z" fill="#4F279B"/>
<path d="M486 488.606C487.439 488.606 488.606 487.439 488.606 486C488.606 484.561 487.439 483.394 486 483.394C484.561 483.394 483.394 484.561 483.394 486C483.394 487.439 484.561 488.606 486 488.606Z" fill="#4F279B"/>
<rect x="-3" y="-3" width="492" height="497" fill="url(#paint0_radial_210_1166)"/>
</g>
<defs>
<radialGradient id="paint0_radial_210_1166" cx="0" cy="0" r="1" gradientUnits="userSpaceOnUse" gradientTransform="translate(243 245.5) rotate(90) scale(248.5 252.129)">
<stop stop-color="#D9D9D9" stop-opacity="0"/>
<stop offset="0.745" stop-opacity="0"/>
<stop offset="0.95"/>
</radialGradient>
<clipPath id="clip0_210_1166">
<rect width="486" height="486" fill="white"/>
</clipPath>
</defs>
</svg>
