<svg width="290" height="294" viewBox="0 0 290 294" fill="none" xmlns="http://www.w3.org/2000/svg">
<g clip-path="url(#clip0_463_3176)">
<rect x="-1" y="3" width="291" height="291" fill="black"/>
<mask id="mask0_463_3176" style="mask-type:luminance" maskUnits="userSpaceOnUse" x="-1" y="3" width="291" height="291">
<path d="M-0.5 3.5H289.5V293.5H-0.5V3.5Z" fill="white" stroke="white"/>
</mask>
<g mask="url(#mask0_463_3176)">
<path d="M236.917 242.989L237.4 243.117L236.917 242.989L233.045 257.565C232.217 260.684 230.34 263.422 227.731 265.321C225.121 267.219 221.938 268.161 218.716 267.989L203.862 267.194C201.478 267.067 199.099 267.508 196.919 268.481C194.74 269.454 192.824 270.932 191.328 272.791L181.961 284.443C179.934 286.964 177.099 288.709 173.935 289.382C170.771 290.055 167.471 289.616 164.593 288.138L151.373 281.351L151.145 281.795L151.373 281.351C149.246 280.259 146.89 279.69 144.5 279.69C142.11 279.69 139.753 280.259 137.627 281.351L124.405 288.138L124.633 288.583L124.405 288.138C121.527 289.616 118.228 290.055 115.064 289.382C111.901 288.708 109.066 286.964 107.039 284.443L97.672 272.791C96.1762 270.932 94.2597 269.454 92.0804 268.481C89.9011 267.508 87.5216 267.067 85.1383 267.194L70.2842 267.989C67.0617 268.161 63.8779 267.219 61.2681 265.321C58.6583 263.423 56.7815 260.684 55.9532 257.565L52.0829 242.989L51.5996 243.117L52.0829 242.989C51.4724 240.691 50.3259 238.57 48.7375 236.8C47.149 235.03 45.1638 233.662 42.9445 232.808L28.962 227.424C25.9603 226.268 23.4461 224.118 21.8392 221.332C20.2322 218.545 19.63 215.292 20.133 212.115L22.5061 197.13C22.8767 194.789 22.6893 192.394 21.9591 190.14C21.2289 187.885 19.9766 185.835 18.3041 184.155L7.63895 173.448L7.2847 173.801L7.6389 173.448C5.37299 171.174 3.95428 168.192 3.61889 164.999C3.28351 161.807 4.05167 158.595 5.79554 155.9L14.0308 143.174L13.611 142.903L14.0308 143.174C15.3173 141.186 16.1163 138.922 16.3629 136.566C16.6095 134.211 16.2968 131.83 15.4501 129.619L10.0258 115.443L9.55887 115.621L10.0258 115.443C8.87778 112.443 8.79234 109.14 9.78377 106.085C10.7752 103.029 12.7836 100.406 15.4744 98.6515L28.0834 90.4323C28.0834 90.4323 28.0834 90.4322 28.0834 90.4322C30.072 89.1363 31.7259 87.3884 32.9099 85.3312C34.094 83.274 34.7748 80.9659 34.8965 78.5955L34.3972 78.5698L34.8965 78.5954L35.672 63.478C35.8372 60.2608 37.1029 57.1981 39.2572 54.803C41.4114 52.4078 44.3232 50.8257 47.5049 50.3216L62.2426 47.9863C64.5959 47.6134 66.8271 46.6872 68.7525 45.2837C70.678 43.8803 72.2427 42.0397 73.3179 39.9135L80.0938 26.513C81.5524 23.6294 83.9603 21.3367 86.9118 20.0213C89.8634 18.7058 93.1782 18.448 96.2977 19.2913L96.4282 18.8086L96.2977 19.2913L110.638 23.1674C112.945 23.791 115.367 23.8564 117.704 23.3581C120.041 22.8598 122.226 21.8121 124.078 20.3019L135.62 10.888C138.128 8.8431 141.264 7.72632 144.5 7.72632C147.736 7.72632 150.872 8.8431 153.38 10.888L164.922 20.3019L165.238 19.9144L164.922 20.3019C166.774 21.8119 168.959 22.8594 171.296 23.3577C173.633 23.856 176.055 23.7908 178.362 23.1674L178.231 22.6847L178.362 23.1674L192.702 19.2913L192.572 18.8086L192.702 19.2913C195.822 18.448 199.136 18.7058 202.088 20.0213C205.04 21.3367 207.448 23.6294 208.906 26.513L215.682 39.9134C216.757 42.0397 218.322 43.8803 220.247 45.2837C222.173 46.6872 224.404 47.6134 226.757 47.9863L241.495 50.3216C244.677 50.8257 247.589 52.4078 249.743 54.803C251.897 57.1981 253.163 60.2608 253.328 63.478L254.103 78.5954C254.225 80.9659 254.906 83.274 256.09 85.3312C257.274 87.3884 258.928 89.1363 260.917 90.4323L273.525 98.6515C276.216 100.406 278.225 103.029 279.216 106.085C280.208 109.14 280.122 112.443 278.974 115.443L273.55 129.619C272.703 131.83 272.39 134.211 272.637 136.566C272.884 138.922 273.683 141.186 274.969 143.174L283.204 155.9C284.948 158.595 285.716 161.807 285.381 164.999C285.046 168.192 283.627 171.174 281.361 173.448L270.696 184.155C269.023 185.834 267.771 187.885 267.04 190.139C266.31 192.394 266.123 194.789 266.494 197.13L268.867 212.115C269.369 215.292 268.766 218.545 267.16 221.331C265.553 224.117 263.039 226.268 260.038 227.424L246.055 232.808C243.836 233.662 241.851 235.03 240.263 236.8C238.674 238.57 237.528 240.691 236.917 242.989Z" fill="#0D0B24" stroke="#A79FFF"/>
</g>
<path opacity="0.8" d="M141 103C115.595 103 95 123.595 95 149C95 174.405 115.595 195 141 195C166.405 195 187 174.405 187 149C187 123.595 166.405 103 141 103ZM125.484 185.736C115.748 181.613 108.045 173.795 104.067 163.999C100.088 154.203 100.159 143.228 104.264 133.484C104.555 132.796 105.437 132.619 105.993 133.118L112.435 138.917C114.025 140.349 114.933 142.387 114.933 144.527V147.569C114.933 151.241 116.338 154.773 118.858 157.442L128.169 167.301C129.153 168.343 130.523 168.933 131.957 168.933C134.834 168.933 137.167 171.266 137.167 174.143V175.486C137.167 177.303 136.413 179.038 135.085 180.277L130.233 184.805C128.95 186.003 127.102 186.418 125.484 185.736ZM169.19 177.19C165.493 180.898 161.099 183.839 156.261 185.843C151.423 187.847 146.237 188.874 141 188.867C138.702 188.867 137.802 186.131 139.482 184.563L141.923 182.284C142.802 181.465 143.3 180.317 143.3 179.116V170.448C143.3 166.224 139.876 162.8 135.652 162.8C133.548 162.8 131.537 161.933 130.092 160.404L125.087 155.104C122.505 152.37 121.067 148.753 121.067 144.993V144.388C121.067 140.598 119.458 136.987 116.641 134.452C111.676 129.983 110.646 122.308 115.824 118.088C118.739 115.713 121.987 113.748 125.483 112.264C131.557 109.695 138.173 108.674 144.739 109.293C148.21 109.62 151.61 110.401 154.854 111.604C159.552 113.347 160.48 119.179 157.403 123.134L156.649 124.104C155.235 125.922 154.892 128.353 155.747 130.492L156.752 133.005C157.106 133.888 156.899 134.898 156.226 135.571C155.663 136.133 154.857 136.377 154.077 136.221L145.15 134.436C142.037 133.813 138.805 134.546 136.265 136.452C133.454 138.559 131.8 141.881 131.8 145.395C131.8 151.605 136.834 156.667 143.044 156.667H158.681C162.995 156.667 167.057 158.698 169.645 162.149C172.993 166.612 173.451 172.828 169.554 176.821C169.434 176.945 169.312 177.068 169.19 177.19ZM180.867 149C180.868 149.712 180.85 150.422 180.813 151.132C180.53 156.582 173.959 157.678 170.684 153.312C169.372 151.563 167.313 150.533 165.126 150.533H143.044C140.222 150.533 137.933 148.217 137.933 145.394C137.933 143.812 138.678 142.308 139.945 141.358C141.089 140.5 142.545 140.17 143.948 140.45L152.874 142.236C155.665 142.794 158.55 141.92 160.563 139.908L161.31 139.161C163.264 137.206 163.866 134.274 162.839 131.708L162.739 131.456C161.889 129.333 162.23 126.918 163.634 125.113L166.846 120.982C167.426 120.237 168.52 120.144 169.189 120.81C172.898 124.507 175.838 128.901 177.843 133.739C179.847 138.577 180.874 143.763 180.867 149Z" fill="#A79FFF"/>
</g>
<rect x="-0.5" y="3.5" width="290" height="290" stroke="black"/>
<g opacity="0.7">
<path d="M47.4418 101.687L46.8444 102.962C46.4423 102.866 46.0583 102.847 45.6924 102.905C45.328 102.96 44.989 103.077 44.6752 103.256C44.3596 103.43 44.0783 103.656 43.8314 103.933C43.5845 104.21 43.3791 104.523 43.2153 104.873C42.9166 105.511 42.8071 106.164 42.8867 106.832C42.968 107.497 43.2508 108.129 43.7351 108.728C44.221 109.324 44.9197 109.835 45.8314 110.262C46.7431 110.689 47.5832 110.899 48.3518 110.891C49.1219 110.88 49.7886 110.693 50.3516 110.33C50.9163 109.963 51.348 109.461 51.6467 108.824C51.8105 108.474 51.9199 108.116 51.9749 107.749C52.0299 107.382 52.025 107.022 51.9602 106.67C51.8935 106.312 51.7647 105.976 51.5738 105.661C51.3811 105.341 51.1208 105.058 50.7928 104.812L51.3902 103.537C51.8834 103.885 52.283 104.286 52.5892 104.738C52.8953 105.191 53.1092 105.676 53.2307 106.193C53.3488 106.708 53.3749 107.236 53.3091 107.778C53.245 108.317 53.0884 108.851 52.8395 109.383C52.4187 110.281 51.8251 110.976 51.0588 111.47C50.2925 111.964 49.4109 112.221 48.4142 112.243C47.4174 112.265 46.3638 112.016 45.2533 111.496C44.1428 110.976 43.2771 110.325 42.6561 109.545C42.0351 108.765 41.6691 107.923 41.558 107.018C41.4469 106.113 41.6018 105.212 42.0226 104.314C42.2715 103.783 42.5823 103.32 42.9549 102.926C43.3292 102.529 43.7537 102.212 44.2286 101.975C44.7 101.736 45.2076 101.589 45.7515 101.535C46.2919 101.478 46.8553 101.529 47.4418 101.687Z" fill="#A79FFF"/>
<path d="M59.9602 96.883C59.5199 97.5356 58.9782 98.0034 58.3352 98.2864C57.6943 98.5662 57.0014 98.6558 56.2567 98.555C55.514 98.4512 54.7693 98.1473 54.0225 97.6434C53.2695 97.1353 52.7043 96.5553 52.3269 95.9033C51.9516 95.2483 51.7737 94.5712 51.7934 93.8722C51.8152 93.17 52.0462 92.4926 52.4866 91.84C52.927 91.1874 53.4676 90.7211 54.1085 90.4413C54.7515 90.1583 55.4459 90.0698 56.1917 90.1758C56.9396 90.2786 57.6901 90.5841 58.4431 91.0922C59.1898 91.5961 59.7493 92.1745 60.1215 92.8275C60.4958 93.4773 60.672 94.1533 60.6503 94.8555C60.6306 95.5545 60.4006 96.2304 59.9602 96.883ZM58.9625 96.2097C59.297 95.714 59.4452 95.2204 59.407 94.7288C59.3688 94.2373 59.1945 93.775 58.884 93.3418C58.5736 92.9086 58.1768 92.5289 57.6937 92.2029C57.2105 91.8769 56.7084 91.6499 56.1873 91.5221C55.6663 91.3943 55.1692 91.4035 54.6959 91.55C54.2227 91.6964 53.8189 92.0175 53.4843 92.5132C53.1498 93.0089 53.0033 93.5036 53.0446 93.9973C53.0859 94.4909 53.2634 94.9554 53.5769 95.3907C53.8905 95.826 54.2888 96.2067 54.772 96.5327C55.2552 96.8588 55.7557 97.0846 56.2736 97.2104C56.7915 97.3361 57.2855 97.3247 57.7556 97.1761C58.2257 97.0276 58.628 96.7054 58.9625 96.2097Z" fill="#A79FFF"/>
<path d="M62.6814 84.3789L66.5682 87.9022L65.6683 88.895L59.2072 83.038L60.0765 82.0789L61.0861 82.994L61.1624 82.9099C60.9715 82.4611 60.9164 81.9922 60.9969 81.5032C61.0746 81.0117 61.3346 80.522 61.777 80.034C62.1735 79.5965 62.6103 79.2951 63.0872 79.1297C63.5613 78.9617 64.0618 78.9506 64.5888 79.0962C65.113 79.2393 65.6499 79.56 66.1996 80.0583L70.3051 83.7799L69.4052 84.7726L65.367 81.112C64.8594 80.6519 64.3445 80.4253 63.8223 80.4321C63.2973 80.4364 62.8264 80.6685 62.4094 81.1284C62.1222 81.4453 61.9341 81.7908 61.8453 82.165C61.759 82.5363 61.7828 82.913 61.9168 83.295C62.0508 83.6769 62.3056 84.0382 62.6814 84.3789Z" fill="#A79FFF"/>
<path d="M72.6539 74.4027L75.9997 78.4433L74.9677 79.2979L69.4059 72.581L70.4029 71.7554L71.2719 72.8049L71.3594 72.7325C71.2344 72.261 71.2465 71.789 71.3958 71.3165C71.5427 70.8411 71.8698 70.3933 72.377 69.9733C72.8318 69.5967 73.307 69.3605 73.8026 69.2646C74.2958 69.1659 74.7928 69.2261 75.2937 69.4452C75.7922 69.6615 76.278 70.0553 76.7512 70.6267L80.2852 74.8948L79.2532 75.7493L75.7771 71.5512C75.3401 71.0236 74.8628 70.726 74.3449 70.6584C73.8246 70.588 73.3254 70.7507 72.8473 71.1466C72.5179 71.4194 72.2826 71.7346 72.1414 72.0923C72.0032 72.4476 71.9731 72.8238 72.0514 73.221C72.1296 73.6181 72.3305 74.012 72.6539 74.4027Z" fill="#A79FFF"/>
<path d="M88.7529 69.3695C88.036 69.8078 87.3209 70.0277 86.6075 70.0291C85.8953 70.0254 85.224 69.8236 84.5936 69.4238C83.9644 69.0188 83.4169 68.4353 82.9509 67.6732C82.4849 66.9111 82.213 66.1545 82.1353 65.4035C82.0589 64.6472 82.1712 63.953 82.4723 63.3208C82.7747 62.6834 83.2617 62.1593 83.9334 61.7486C84.3209 61.5117 84.743 61.3423 85.1998 61.2404C85.6566 61.1386 86.1288 61.1382 86.6166 61.2393C87.1023 61.3371 87.5823 61.5671 88.0566 61.9293C88.531 62.2914 88.9804 62.8196 89.4049 63.5139L89.7011 63.9983L83.966 67.505L83.3618 66.5169L87.9344 63.721C87.6777 63.3012 87.3647 62.9779 86.9954 62.7512C86.6293 62.5225 86.2346 62.4067 85.8113 62.4038C85.3913 62.3989 84.9746 62.5228 84.5612 62.7755C84.1059 63.0539 83.7811 63.4078 83.5867 63.8372C83.3936 64.2615 83.3178 64.7071 83.3593 65.1741C83.4009 65.6412 83.5471 66.0797 83.7978 66.4898L84.2006 67.1486C84.5442 67.7105 84.9323 68.1276 85.365 68.3998C85.7989 68.6669 86.2524 68.7955 86.7256 68.7857C87.1968 68.7726 87.6632 68.625 88.125 68.3426C88.4253 68.159 88.6709 67.9511 88.8618 67.7191C89.0539 67.4818 89.1864 67.2233 89.2594 66.9436C89.3303 66.6606 89.3353 66.3603 89.2742 66.0428L90.5681 65.6775C90.6809 66.1232 90.687 66.572 90.5862 67.024C90.4835 67.4728 90.2787 67.8997 89.9718 68.3047C89.663 68.7065 89.2567 69.0615 88.7529 69.3695Z" fill="#A79FFF"/>
<path d="M100.493 63.3013C99.7414 63.6242 99.0184 63.7249 98.3235 63.6034C97.6285 63.4819 97.0012 63.1727 96.4415 62.6759C95.8819 62.179 95.4301 61.5307 95.0863 60.7309C94.7365 59.9172 94.5773 59.1348 94.6088 58.3838C94.6423 57.6279 94.853 56.9584 95.241 56.3755C95.631 55.7876 96.1876 55.3382 96.9109 55.0273C97.4742 54.7851 98.0268 54.6712 98.5685 54.6855C99.1103 54.6998 99.6062 54.8327 100.056 55.0842C100.506 55.3356 100.874 55.6968 101.159 56.1676L99.9276 56.6968C99.6767 56.3721 99.329 56.1384 98.8846 55.9957C98.4421 55.8481 97.9496 55.8909 97.4071 56.1241C96.9273 56.3304 96.5603 56.6365 96.3063 57.0423C96.0543 57.4431 95.9246 57.913 95.9172 58.4517C95.9119 58.9855 96.0392 59.5549 96.2993 60.16C96.5654 60.7789 96.8945 61.2761 97.2865 61.6514C97.6821 62.0252 98.1135 62.262 98.5808 62.3619C99.0515 62.4602 99.5303 62.4048 100.017 62.1955C100.337 62.058 100.604 61.8775 100.816 61.6541C101.029 61.4308 101.181 61.1759 101.273 60.8895C101.364 60.6031 101.385 60.2974 101.336 59.9725L102.567 59.4433C102.7 59.9461 102.711 60.4461 102.6 60.9432C102.49 61.4353 102.259 61.8891 101.906 62.3045C101.555 62.7149 101.084 63.0472 100.493 63.3013Z" fill="#A79FFF"/>
<path d="M110.885 50.2754L111.199 51.3667L106.855 52.6157L106.542 51.5244L110.885 50.2754ZM107.23 49.1524L108.518 48.7821L110.815 56.7703C110.92 57.1341 111.051 57.3917 111.209 57.5433C111.369 57.6901 111.542 57.7704 111.727 57.7841C111.914 57.7932 112.103 57.7705 112.292 57.7161C112.434 57.6753 112.548 57.6346 112.635 57.5939C112.721 57.5495 112.789 57.5141 112.841 57.4875L113.435 58.5689C113.357 58.6267 113.245 58.6945 113.098 58.7722C112.952 58.8536 112.759 58.9288 112.519 58.9978C112.155 59.1024 111.776 59.1267 111.382 59.0707C110.991 59.0137 110.635 58.8581 110.314 58.6038C109.997 58.3486 109.768 57.9772 109.628 57.4898L107.23 49.1524Z" fill="#A79FFF"/>
<path d="M140.058 53.4161C139.6 53.402 139.186 53.2775 138.814 53.0426C138.443 52.804 138.15 52.492 137.934 52.1067C137.723 51.7215 137.624 51.3 137.638 50.8422C137.652 50.3807 137.777 49.9661 138.011 49.5984C138.25 49.2271 138.562 48.9356 138.947 48.7241C139.333 48.5087 139.754 48.4081 140.212 48.4222C140.673 48.4364 141.088 48.5628 141.456 48.8013C141.827 49.0362 142.118 49.3462 142.33 49.7314C142.545 50.113 142.646 50.5345 142.632 50.9961C142.618 51.4538 142.491 51.8684 142.253 52.2397C142.018 52.6112 141.708 52.9045 141.322 53.1199C140.941 53.3316 140.52 53.4303 140.058 53.4161Z" fill="#A79FFF"/>
<path d="M160.9 47.7283L161.233 46.5245L169.638 48.8523L169.304 50.056L165.781 49.08L163.01 59.082L161.653 58.7062L164.424 48.7042L160.9 47.7283Z" fill="#A79FFF"/>
<path d="M175.341 63.744C174.573 63.4035 173.986 62.9402 173.579 62.3542C173.177 61.7662 172.961 61.0993 172.932 60.3534C172.907 59.6055 173.076 58.8233 173.438 58.0066C173.8 57.19 174.267 56.5362 174.841 56.0452C175.42 55.5523 176.055 55.25 176.746 55.1382C177.442 55.0245 178.15 55.1271 178.87 55.4461C179.285 55.6302 179.665 55.8811 180.008 56.199C180.352 56.5169 180.62 56.9051 180.815 57.3638C181.01 57.819 181.094 58.3446 181.066 58.9407C181.038 59.5368 180.859 60.2069 180.529 60.9508L180.299 61.4699L174.153 58.7461L174.623 57.6872L179.522 59.8589C179.722 59.4091 179.81 58.9678 179.786 58.5351C179.766 58.1039 179.637 57.7134 179.399 57.3635C179.164 57.0152 178.825 56.7429 178.382 56.5465C177.894 56.3303 177.419 56.2643 176.955 56.3486C176.496 56.4309 176.086 56.6219 175.726 56.9217C175.365 57.2214 175.088 57.591 174.893 58.0305L174.58 58.7364C174.313 59.3385 174.191 59.8949 174.213 60.4057C174.24 60.9145 174.392 61.3607 174.669 61.7443C174.947 62.1245 175.334 62.4243 175.829 62.6436C176.151 62.7862 176.461 62.87 176.761 62.8951C177.065 62.9182 177.353 62.8803 177.625 62.7812C177.898 62.6787 178.148 62.5121 178.374 62.2812L179.411 63.138C179.108 63.4841 178.742 63.7443 178.313 63.9185C177.886 64.0892 177.418 64.1634 176.91 64.1413C176.404 64.1157 175.881 63.9832 175.341 63.744Z" fill="#A79FFF"/>
<path d="M186.168 69.4513C185.7 69.1577 185.33 68.8031 185.059 68.3875C184.79 67.9687 184.649 67.5205 184.635 67.0431C184.624 66.5624 184.769 66.0815 185.071 65.6005C185.336 65.1772 185.635 64.8863 185.966 64.7279C186.3 64.5663 186.654 64.4976 187.027 64.5218C187.401 64.546 187.779 64.6267 188.162 64.7641C188.55 64.9002 188.93 65.0534 189.301 65.2237C189.786 65.4474 190.177 65.6323 190.474 65.7784C190.777 65.9232 191.015 65.999 191.19 66.0057C191.367 66.0143 191.513 65.9273 191.628 65.7445L191.652 65.706C191.95 65.2314 192.051 64.7812 191.956 64.3553C191.864 63.9315 191.557 63.5558 191.035 63.2281C190.493 62.8883 189.993 62.7405 189.537 62.7848C189.08 62.8291 188.705 62.9468 188.411 63.1377L187.575 62.0774C188.048 61.749 188.524 61.5603 189.002 61.5112C189.484 61.461 189.948 61.5057 190.392 61.6456C190.841 61.7842 191.251 61.9702 191.623 62.2034C191.861 62.3522 192.115 62.5519 192.387 62.8027C192.664 63.0522 192.892 63.354 193.072 63.7081C193.255 64.0643 193.334 64.4774 193.307 64.9476C193.28 65.4178 193.083 65.9463 192.715 66.5332L189.663 71.4012L188.528 70.6895L189.155 69.689L189.097 69.6528C188.92 69.7649 188.684 69.856 188.39 69.9262C188.096 69.9964 187.759 70.0022 187.381 69.9434C187.002 69.8847 186.598 69.7207 186.168 69.4513ZM186.98 68.5401C187.429 68.8215 187.863 68.9706 188.282 68.9872C188.703 69.0059 189.08 68.9249 189.412 68.7445C189.747 68.566 190.012 68.3228 190.205 68.015L190.856 66.9759C190.772 67.0035 190.633 66.9901 190.439 66.9356C190.25 66.88 190.039 66.8035 189.806 66.706C189.577 66.6074 189.355 66.5086 189.14 66.4096C188.931 66.3094 188.76 66.2292 188.628 66.1688C188.309 66.0223 187.994 65.9119 187.683 65.8377C187.377 65.7622 187.093 65.7602 186.829 65.8317C186.571 65.9019 186.351 66.0813 186.17 66.37C185.923 66.7644 185.882 67.1541 186.047 67.5391C186.217 67.9229 186.528 68.2566 186.98 68.5401Z" fill="#A79FFF"/>
<path d="M195.231 75.2692L201.034 68.7592L202 69.6205L201.094 70.6377L201.178 70.7132C201.624 70.4866 202.083 70.4119 202.557 70.4892C203.033 70.5638 203.483 70.7899 203.907 71.1677C204.336 71.5505 204.607 71.9665 204.718 72.4159C204.835 72.8649 204.82 73.3349 204.671 73.826L204.739 73.8865C205.205 73.6988 205.693 73.6547 206.203 73.7541C206.715 73.8507 207.204 74.1067 207.67 74.5223C208.253 75.0411 208.566 75.6477 208.611 76.3421C208.659 77.0337 208.342 77.7623 207.659 78.5281L203.776 82.8851L202.776 81.9935L206.659 77.6365C207.087 77.1562 207.262 76.6958 207.183 76.2553C207.104 75.8148 206.887 75.4359 206.531 75.1186C206.073 74.7106 205.595 74.533 205.097 74.5857C204.601 74.6357 204.165 74.8711 203.79 75.2921L200.012 79.5305L198.995 78.6238L202.969 74.1651C203.299 73.7949 203.445 73.3898 203.406 72.9497C203.37 72.5068 203.162 72.1166 202.784 71.7791C202.524 71.5474 202.219 71.4 201.87 71.337C201.523 71.2765 201.171 71.3074 200.814 71.4299C200.461 71.552 200.143 71.7727 199.858 72.092L196.232 76.1608L195.231 75.2692Z" fill="#A79FFF"/>
<path d="M227.652 94.9094L228.411 96.095L221.929 100.248C221.26 100.677 220.561 100.902 219.833 100.923C219.11 100.946 218.415 100.769 217.746 100.392C217.081 100.014 216.503 99.4406 216.011 98.6726C215.518 97.9045 215.239 97.1393 215.174 96.3768C215.111 95.6124 215.24 94.905 215.56 94.2546C215.886 93.6053 216.384 93.0663 217.053 92.6375L223.535 88.4844L224.295 89.6699L217.908 93.7619C217.43 94.0681 217.072 94.4459 216.834 94.8951C216.599 95.3423 216.499 95.8288 216.535 96.3544C216.576 96.8811 216.77 97.417 217.12 97.962C217.469 98.507 217.874 98.9081 218.336 99.1653C218.8 99.4205 219.284 99.5333 219.786 99.5036C220.294 99.475 220.787 99.3076 221.265 99.0013L227.652 94.9094Z" fill="#A79FFF"/>
<path d="M218.66 109.449L229.656 104.668L230.172 105.855L228.902 106.407L228.965 106.553C229.143 106.583 229.375 106.631 229.659 106.697C229.949 106.765 230.244 106.913 230.546 107.141C230.852 107.371 231.119 107.746 231.345 108.267C231.638 108.94 231.728 109.607 231.614 110.267C231.501 110.927 231.198 111.536 230.706 112.092C230.213 112.649 229.547 113.11 228.707 113.476C227.86 113.844 227.063 114.019 226.316 114.001C225.573 113.982 224.921 113.791 224.359 113.429C223.8 113.065 223.376 112.55 223.086 111.883C222.863 111.369 222.769 110.921 222.805 110.538C222.844 110.154 222.937 109.831 223.083 109.569C223.232 109.306 223.361 109.097 223.467 108.944L223.422 108.84L219.194 110.678L218.66 109.449ZM226.183 107.614C225.579 107.877 225.084 108.197 224.7 108.575C224.318 108.951 224.072 109.366 223.959 109.819C223.85 110.271 223.903 110.744 224.117 111.237C224.341 111.75 224.663 112.12 225.083 112.346C225.508 112.574 225.989 112.674 226.526 112.647C227.068 112.622 227.624 112.485 228.193 112.238C228.756 111.993 229.225 111.686 229.6 111.316C229.981 110.948 230.228 110.534 230.341 110.072C230.459 109.612 230.404 109.122 230.178 108.601C229.96 108.101 229.651 107.736 229.25 107.506C228.852 107.275 228.39 107.17 227.863 107.193C227.34 107.214 226.78 107.355 226.183 107.614Z" fill="#A79FFF"/>
<path d="M231.698 132.544C231.62 132.093 231.659 131.662 231.814 131.251C231.974 130.839 232.221 130.49 232.555 130.201C232.89 129.917 233.283 129.736 233.735 129.658C234.19 129.58 234.621 129.618 235.028 129.775C235.44 129.934 235.788 130.182 236.072 130.517C236.36 130.851 236.543 131.244 236.621 131.695C236.7 132.15 236.659 132.582 236.499 132.99C236.343 133.401 236.098 133.748 235.763 134.033C235.432 134.32 235.039 134.503 234.584 134.582C234.133 134.659 233.701 134.619 233.29 134.459C232.879 134.303 232.529 134.058 232.241 133.724C231.957 133.393 231.776 132.999 231.698 132.544Z" fill="#A79FFF"/>
<path d="M238.333 161.681L238.441 160.277C238.851 160.225 239.217 160.107 239.539 159.923C239.86 159.743 240.136 159.514 240.366 159.235C240.6 158.961 240.783 158.651 240.916 158.304C241.05 157.958 241.131 157.592 241.161 157.207C241.215 156.505 241.086 155.855 240.776 155.258C240.465 154.665 239.977 154.173 239.312 153.784C238.647 153.399 237.813 153.167 236.809 153.09C235.805 153.013 234.945 153.113 234.229 153.392C233.512 153.675 232.955 154.085 232.556 154.624C232.158 155.166 231.931 155.789 231.877 156.491C231.847 156.875 231.872 157.249 231.95 157.612C232.028 157.975 232.16 158.31 232.345 158.617C232.534 158.927 232.773 159.196 233.063 159.424C233.356 159.655 233.7 159.828 234.094 159.942L233.985 161.345C233.401 161.194 232.886 160.961 232.439 160.645C231.993 160.33 231.621 159.952 231.325 159.512C231.033 159.071 230.821 158.586 230.691 158.056C230.561 157.53 230.519 156.974 230.564 156.389C230.64 155.4 230.949 154.54 231.492 153.807C232.034 153.075 232.768 152.522 233.693 152.149C234.617 151.776 235.691 151.637 236.914 151.731C238.136 151.826 239.176 152.128 240.033 152.638C240.889 153.149 241.529 153.807 241.953 154.614C242.376 155.421 242.55 156.319 242.474 157.308C242.429 157.893 242.301 158.436 242.092 158.936C241.882 159.44 241.597 159.887 241.237 160.276C240.88 160.666 240.457 160.983 239.968 161.226C239.482 161.47 238.937 161.621 238.333 161.681Z" fill="#A79FFF"/>
<path d="M228.32 170.599C228.501 169.833 228.843 169.204 229.344 168.712C229.845 168.224 230.461 167.895 231.194 167.726C231.925 167.561 232.729 167.582 233.606 167.789C234.49 167.999 235.223 168.342 235.807 168.818C236.39 169.298 236.795 169.869 237.024 170.53C237.252 171.194 237.275 171.91 237.093 172.676C236.912 173.442 236.571 174.069 236.071 174.557C235.569 175.049 234.951 175.377 234.216 175.542C233.48 175.71 232.67 175.689 231.786 175.48C230.909 175.273 230.181 174.929 229.602 174.45C229.023 173.974 228.619 173.404 228.391 172.74C228.162 172.079 228.139 171.365 228.32 170.599ZM229.491 170.876C229.353 171.458 229.389 171.972 229.599 172.419C229.808 172.865 230.135 173.236 230.578 173.532C231.022 173.827 231.527 174.042 232.094 174.176C232.661 174.311 233.211 174.345 233.744 174.281C234.276 174.216 234.738 174.032 235.129 173.728C235.52 173.424 235.784 172.98 235.922 172.398C236.06 171.817 236.022 171.302 235.809 170.855C235.596 170.408 235.266 170.036 234.819 169.739C234.372 169.443 233.864 169.228 233.297 169.093C232.73 168.959 232.182 168.925 231.653 168.99C231.124 169.056 230.666 169.241 230.279 169.546C229.891 169.851 229.629 170.294 229.491 170.876Z" fill="#A79FFF"/>
<path d="M236.213 185.311L225.273 181.369L225.728 180.109L236.667 184.05L236.213 185.311Z" fill="#A79FFF"/>
<path d="M232.827 193.473L222.257 188.628L222.815 187.41L233.385 192.255L232.827 193.473Z" fill="#A79FFF"/>
<path d="M217.878 196.524C218.163 196.051 218.512 195.675 218.923 195.398C219.337 195.121 219.783 194.973 220.26 194.951C220.74 194.932 221.224 195.069 221.71 195.362C222.137 195.621 222.433 195.914 222.597 196.243C222.764 196.574 222.839 196.926 222.821 197.3C222.803 197.674 222.729 198.054 222.598 198.439C222.468 198.829 222.321 199.211 222.157 199.586C221.942 200.074 221.764 200.469 221.623 200.768C221.483 201.073 221.411 201.312 221.407 201.487C221.402 201.665 221.491 201.81 221.676 201.921L221.715 201.945C222.194 202.234 222.646 202.328 223.07 202.226C223.492 202.127 223.863 201.814 224.182 201.285C224.513 200.738 224.652 200.236 224.6 199.78C224.548 199.324 224.424 198.951 224.228 198.66L225.274 197.807C225.611 198.275 225.807 198.747 225.864 199.224C225.923 199.706 225.886 200.17 225.753 200.616C225.622 201.067 225.443 201.481 225.216 201.857C225.072 202.097 224.876 202.355 224.63 202.63C224.385 202.911 224.087 203.145 223.736 203.331C223.383 203.52 222.971 203.605 222.501 203.586C222.03 203.568 221.498 203.379 220.905 203.021L215.987 200.051L216.679 198.904L217.69 199.515L217.726 199.456C217.611 199.281 217.515 199.047 217.44 198.754C217.365 198.461 217.354 198.124 217.406 197.745C217.458 197.365 217.616 196.958 217.878 196.524ZM218.803 197.321C218.529 197.775 218.387 198.211 218.377 198.63C218.366 199.052 218.453 199.427 218.639 199.756C218.823 200.088 219.071 200.348 219.382 200.536L220.432 201.17C220.403 201.086 220.414 200.947 220.465 200.752C220.517 200.563 220.59 200.35 220.684 200.115C220.779 199.885 220.874 199.662 220.969 199.445C221.066 199.234 221.143 199.062 221.201 198.929C221.342 198.607 221.447 198.29 221.516 197.978C221.587 197.671 221.584 197.387 221.508 197.124C221.433 196.867 221.25 196.65 220.959 196.474C220.56 196.234 220.17 196.199 219.788 196.371C219.407 196.547 219.078 196.864 218.803 197.321Z" fill="#A79FFF"/>
<path d="M211.996 205.782L220.962 213.185L220.109 214.218L216.799 211.486L216.727 211.573C216.781 211.745 216.843 211.973 216.913 212.257C216.984 212.546 216.986 212.877 216.919 213.249C216.853 213.626 216.639 214.033 216.278 214.471C215.81 215.038 215.256 215.42 214.617 215.618C213.977 215.816 213.297 215.822 212.578 215.635C211.858 215.448 211.145 215.064 210.439 214.48C209.727 213.892 209.209 213.261 208.887 212.588C208.567 211.917 208.442 211.248 208.51 210.583C208.581 209.92 208.848 209.309 209.311 208.748C209.667 208.316 210.025 208.03 210.382 207.888C210.742 207.749 211.072 207.685 211.372 207.697C211.674 207.711 211.918 207.731 212.104 207.756L212.205 207.633L211.172 206.78L211.996 205.782ZM214.519 209.574C214.012 209.155 213.502 208.859 212.991 208.687C212.483 208.518 212.001 208.486 211.546 208.591C211.094 208.699 210.697 208.96 210.355 209.375C209.998 209.807 209.814 210.261 209.803 210.738C209.793 211.22 209.921 211.695 210.189 212.161C210.457 212.633 210.831 213.066 211.309 213.462C211.782 213.852 212.269 214.131 212.769 214.298C213.269 214.471 213.751 214.503 214.213 214.394C214.677 214.291 215.089 214.02 215.451 213.582C215.798 213.162 215.983 212.721 216.006 212.259C216.032 211.799 215.915 211.34 215.656 210.881C215.4 210.424 215.021 209.988 214.519 209.574Z" fill="#A79FFF"/>
<path d="M199.976 218.478C200.561 217.951 201.199 217.628 201.892 217.508C202.581 217.391 203.275 217.471 203.973 217.749C204.669 218.029 205.319 218.503 205.922 219.172C206.53 219.847 206.939 220.546 207.148 221.27C207.354 221.996 207.363 222.696 207.175 223.37C206.985 224.046 206.597 224.648 206.012 225.175C205.428 225.702 204.791 226.024 204.101 226.141C203.409 226.261 202.714 226.179 202.015 225.896C201.314 225.616 200.66 225.139 200.051 224.464C199.448 223.795 199.045 223.098 198.841 222.375C198.635 221.654 198.627 220.956 198.817 220.279C199.005 219.606 199.391 219.005 199.976 218.478ZM200.782 219.372C200.338 219.773 200.075 220.216 199.993 220.702C199.912 221.188 199.969 221.679 200.166 222.174C200.363 222.67 200.656 223.134 201.047 223.567C201.437 224 201.87 224.341 202.344 224.591C202.819 224.841 203.304 224.951 203.798 224.923C204.293 224.895 204.762 224.681 205.207 224.281C205.651 223.88 205.912 223.436 205.991 222.947C206.07 222.458 206.01 221.964 205.811 221.466C205.612 220.968 205.317 220.502 204.926 220.069C204.536 219.637 204.105 219.297 203.633 219.05C203.16 218.803 202.678 218.695 202.186 218.725C201.694 218.756 201.226 218.972 200.782 219.372Z" fill="#A79FFF"/>
<path d="M192.463 224.83L197.441 231.99L196.378 232.729L195.627 231.648L195.552 231.7C195.668 232.145 195.631 232.596 195.443 233.055C195.255 233.513 194.946 233.891 194.517 234.189C194.436 234.246 194.334 234.314 194.211 234.395C194.088 234.477 193.993 234.536 193.926 234.573L193.148 233.454C193.192 233.437 193.287 233.392 193.434 233.318C193.579 233.249 193.725 233.163 193.871 233.062C194.219 232.82 194.479 232.531 194.651 232.195C194.822 231.864 194.898 231.516 194.88 231.151C194.86 230.791 194.738 230.449 194.513 230.126L191.363 225.595L192.463 224.83Z" fill="#A79FFF"/>
<path d="M181.558 231.415C182.048 231.159 182.541 231.019 183.036 230.995C183.534 230.974 183.992 231.078 184.411 231.308C184.831 231.541 185.173 231.909 185.436 232.412C185.668 232.855 185.768 233.259 185.737 233.626C185.708 233.995 185.589 234.335 185.38 234.645C185.17 234.955 184.91 235.241 184.598 235.502C184.284 235.769 183.96 236.019 183.626 236.254C183.188 236.56 182.831 236.804 182.555 236.987C182.277 237.174 182.091 237.342 181.998 237.489C181.9 237.638 181.902 237.808 182.002 238L182.023 238.04C182.282 238.536 182.62 238.851 183.035 238.984C183.447 239.119 183.927 239.043 184.473 238.758C185.04 238.461 185.42 238.105 185.612 237.688C185.805 237.272 185.892 236.889 185.876 236.538L187.214 236.352C187.258 236.927 187.18 237.433 186.982 237.87C186.781 238.312 186.509 238.689 186.164 239.002C185.818 239.319 185.45 239.58 185.061 239.783C184.812 239.913 184.512 240.032 184.158 240.14C183.803 240.253 183.427 240.298 183.03 240.274C182.63 240.253 182.234 240.112 181.842 239.851C181.449 239.591 181.093 239.154 180.772 238.54L178.111 233.448L179.298 232.827L179.845 233.873L179.906 233.842C179.898 233.632 179.939 233.383 180.027 233.093C180.115 232.804 180.28 232.51 180.521 232.213C180.763 231.916 181.109 231.65 181.558 231.415ZM181.935 232.576C181.465 232.822 181.117 233.121 180.892 233.474C180.663 233.828 180.543 234.194 180.531 234.572C180.515 234.952 180.592 235.303 180.76 235.625L181.328 236.711C181.347 236.625 181.429 236.512 181.574 236.372C181.717 236.237 181.89 236.094 182.092 235.941C182.292 235.793 182.489 235.652 182.683 235.516C182.876 235.386 183.031 235.279 183.15 235.196C183.437 234.994 183.692 234.778 183.913 234.547C184.132 234.321 184.278 234.077 184.349 233.813C184.419 233.554 184.375 233.274 184.217 232.972C184.002 232.56 183.686 232.327 183.27 232.276C182.853 232.229 182.408 232.329 181.935 232.576Z" fill="#A79FFF"/>
<path d="M171.324 245.661L170.929 244.596L175.166 243.023L175.561 244.087L171.324 245.661ZM175.054 246.504L173.798 246.971L170.904 239.179C170.772 238.824 170.622 238.577 170.453 238.438C170.282 238.304 170.104 238.237 169.918 238.237C169.73 238.242 169.544 238.279 169.36 238.347C169.221 238.399 169.11 238.448 169.027 238.495C168.945 238.546 168.879 238.587 168.83 238.617L168.155 237.583C168.228 237.52 168.335 237.444 168.476 237.355C168.616 237.263 168.802 237.174 169.037 237.087C169.391 236.955 169.767 236.902 170.165 236.928C170.558 236.955 170.925 237.084 171.265 237.313C171.601 237.543 171.857 237.896 172.033 238.372L175.054 246.504Z" fill="#A79FFF"/>
<path d="M158.586 240.094C159.404 239.902 160.152 239.918 160.83 240.14C161.505 240.368 162.079 240.77 162.552 241.347C163.023 241.929 163.359 242.655 163.563 243.525C163.766 244.395 163.787 245.198 163.625 245.936C163.46 246.678 163.135 247.302 162.651 247.808C162.164 248.318 161.537 248.663 160.771 248.842C160.328 248.945 159.874 248.974 159.409 248.927C158.943 248.88 158.494 248.732 158.063 248.483C157.633 248.238 157.249 247.869 156.912 247.376C156.576 246.884 156.315 246.241 156.129 245.449L156 244.896L162.546 243.366L162.81 244.494L157.591 245.714C157.703 246.193 157.898 246.598 158.178 246.929C158.454 247.261 158.792 247.495 159.193 247.63C159.59 247.767 160.025 247.78 160.497 247.67C161.016 247.548 161.436 247.314 161.755 246.968C162.072 246.625 162.283 246.226 162.391 245.77C162.498 245.313 162.497 244.851 162.387 244.383L162.211 243.631C162.061 242.989 161.824 242.472 161.498 242.077C161.17 241.688 160.78 241.423 160.328 241.284C159.876 241.149 159.387 241.142 158.86 241.266C158.517 241.346 158.219 241.466 157.965 241.626C157.708 241.791 157.501 241.995 157.344 242.238C157.188 242.484 157.089 242.768 157.047 243.089L155.704 243.029C155.737 242.571 155.872 242.143 156.109 241.745C156.348 241.351 156.676 241.01 157.095 240.722C157.514 240.437 158.011 240.228 158.586 240.094Z" fill="#A79FFF"/>
<path d="M137.173 244.842C137.631 244.845 138.049 244.959 138.426 245.184C138.803 245.413 139.104 245.718 139.329 246.098C139.551 246.477 139.66 246.896 139.657 247.354C139.655 247.816 139.541 248.234 139.315 248.607C139.086 248.984 138.782 249.284 138.402 249.505C138.022 249.73 137.603 249.841 137.145 249.838C136.683 249.836 136.266 249.72 135.892 249.491C135.515 249.265 135.216 248.963 134.995 248.583C134.77 248.207 134.659 247.788 134.661 247.326C134.664 246.868 134.78 246.451 135.009 246.073C135.234 245.696 135.537 245.395 135.917 245.17C136.293 244.949 136.711 244.84 137.173 244.842Z" fill="#A79FFF"/>
</g>
<defs>
<clipPath id="clip0_463_3176">
<rect x="-1" y="3" width="291" height="291" fill="white"/>
</clipPath>
</defs>
</svg>
