<svg width="129" height="182" viewBox="0 0 129 182" fill="none" xmlns="http://www.w3.org/2000/svg">
<path d="M1 4.72656C42.3333 -4.60677 109 24.7268 98.5 72.7266C73 114.227 36 72.7266 54.5 51.2265C75.5 29.7264 122.5 36.7268 125.5 69.7268C119.5 121.227 93.1667 143.726 77 166.726" stroke="#4F279B" stroke-width="6" stroke-dasharray="19 19"/>
<path d="M85.0343 159.453C85.8369 158.33 85.5766 156.768 84.4531 155.966C83.3296 155.163 81.7682 155.423 80.9657 156.547L85.0343 159.453ZM65.534 179.411C65.761 180.773 67.0491 181.693 68.411 181.466L90.6049 177.767C91.9668 177.54 92.8868 176.252 92.6598 174.89C92.4329 173.528 91.1448 172.608 89.7829 172.835L70.055 176.123L66.767 156.395C66.54 155.033 65.252 154.113 63.89 154.34C62.5281 154.567 61.6081 155.855 61.835 157.217L65.534 179.411ZM80.9657 156.547L65.9657 177.547L70.0343 180.453L85.0343 159.453L80.9657 156.547Z" fill="#4F279B"/>
</svg>
