<svg width="370" height="370" viewBox="0 0 370 370" fill="none" xmlns="http://www.w3.org/2000/svg">
<g opacity="0.3">
<mask id="path-1-inside-1_210_1350" fill="white">
<path fill-rule="evenodd" clip-rule="evenodd" d="M2.89919e-06 151.834L0 218.16C28.6492 218.16 57.0178 212.517 83.4862 201.554C109.955 190.59 134.004 174.52 154.262 154.262C174.52 134.004 190.59 109.955 201.554 83.4862C212.517 57.0178 218.16 28.6492 218.16 0H151.834C151.782 19.8562 147.846 39.5119 140.247 57.859C132.596 76.3287 121.383 93.1107 107.247 107.247C93.1107 121.383 76.3287 132.596 57.859 140.247C39.5119 147.846 19.8562 151.782 2.89919e-06 151.834Z"/>
</mask>
<path fill-rule="evenodd" clip-rule="evenodd" d="M2.89919e-06 151.834L0 218.16C28.6492 218.16 57.0178 212.517 83.4862 201.554C109.955 190.59 134.004 174.52 154.262 154.262C174.52 134.004 190.59 109.955 201.554 83.4862C212.517 57.0178 218.16 28.6492 218.16 0H151.834C151.782 19.8562 147.846 39.5119 140.247 57.859C132.596 76.3287 121.383 93.1107 107.247 107.247C93.1107 121.383 76.3287 132.596 57.859 140.247C39.5119 147.846 19.8562 151.782 2.89919e-06 151.834Z" fill="black"/>
<path d="M0 218.16H-2.5V220.66H0V218.16ZM2.89919e-06 151.834L-0.00652902 149.334L-2.5 149.341L-2.5 151.834H2.89919e-06ZM83.4862 201.554L82.5295 199.244H82.5295L83.4862 201.554ZM154.262 154.262L156.03 156.03L154.262 154.262ZM201.554 83.4862L199.244 82.5295L201.554 83.4862ZM218.16 0H220.66V-2.5H218.16V0ZM151.834 0V-2.5H149.341L149.334 -0.00653192L151.834 0ZM140.247 57.859L137.937 56.9023L140.247 57.859ZM57.859 140.247L56.9023 137.937L57.859 140.247ZM2.5 218.16L2.5 209.869H-2.5L-2.5 218.16H2.5ZM2.5 193.288L2.5 176.706H-2.5L-2.5 193.288H2.5ZM2.5 160.125L2.5 151.834H-2.5L-2.5 160.125H2.5ZM0.00653482 154.334C2.52423 154.328 5.03875 154.26 7.54791 154.131L7.29116 149.137C4.86308 149.262 2.42981 149.328 -0.00652902 149.334L0.00653482 154.334ZM22.5561 152.623C27.5313 151.876 32.4672 150.888 37.3462 149.661L36.1265 144.812C31.4052 145.999 26.6288 146.956 21.8144 147.678L22.5561 152.623ZM51.7776 145.273C54.1429 144.425 56.4897 143.52 58.8158 142.556L56.9023 137.937C54.6514 138.869 52.3805 139.746 50.0916 140.565L51.7776 145.273ZM58.8158 142.556C61.1574 141.586 63.4724 140.56 65.7589 139.479L63.6211 134.959C61.4086 136.005 59.1684 136.998 56.9023 137.937L58.8158 142.556ZM79.1506 132.321C83.4947 129.717 87.7083 126.901 91.7762 123.885L88.7978 119.868C84.8613 122.788 80.7838 125.512 76.5801 128.032L79.1506 132.321ZM103.514 114.251C105.388 112.553 107.222 110.807 109.015 109.015L105.479 105.479C103.745 107.213 101.97 108.903 100.156 110.547L103.514 114.251ZM109.015 109.015C110.807 107.222 112.553 105.388 114.251 103.514L110.547 100.156C108.903 101.97 107.213 103.745 105.479 105.479L109.015 109.015ZM123.885 91.7762C126.902 87.7083 129.717 83.4947 132.321 79.1506L128.032 76.5801C125.512 80.7838 122.788 84.8613 119.868 88.7977L123.885 91.7762ZM139.479 65.7589C140.56 63.4724 141.586 61.1574 142.556 58.8158L137.937 56.9023C136.998 59.1684 136.005 61.4086 134.959 63.6211L139.479 65.7589ZM142.556 58.8158C143.52 56.4897 144.425 54.1429 145.273 51.7776L140.565 50.0916C139.746 52.3804 138.869 54.6514 137.937 56.9023L142.556 58.8158ZM149.661 37.3462C150.888 32.4672 151.876 27.5313 152.623 22.5561L147.678 21.8144C146.956 26.6288 145.999 31.4052 144.812 36.1265L149.661 37.3462ZM154.131 7.54791C154.26 5.03875 154.328 2.52422 154.334 0.00653192L149.334 -0.00653192C149.328 2.42981 149.262 4.86308 149.137 7.29116L154.131 7.54791ZM151.834 2.5H160.125V-2.5H151.834V2.5ZM176.706 2.5H193.288V-2.5H176.706V2.5ZM209.869 2.5H218.16V-2.5H209.869V2.5ZM215.66 0C215.66 2.35434 215.621 4.70677 215.545 7.05635L220.542 7.21995C220.621 4.81589 220.66 2.40892 220.66 0H215.66ZM214.622 21.1384C214.16 25.8236 213.546 30.49 212.78 35.1301L217.713 35.9446C218.497 31.1969 219.125 26.4223 219.597 21.6285L214.622 21.1384ZM210.026 48.9713C208.958 53.5513 207.74 58.0976 206.374 62.6028L211.158 64.0542C212.557 59.4446 213.803 54.7929 214.896 50.1066L210.026 48.9713ZM201.838 75.9661C201.009 78.1663 200.145 80.3544 199.244 82.5295L203.863 84.4429C204.785 82.2174 205.67 79.9785 206.517 77.7274L201.838 75.9661ZM199.244 82.5295C198.343 84.7046 197.407 86.8632 196.437 89.0045L200.991 91.0681C201.984 88.8771 202.941 86.6685 203.863 84.4429L199.244 82.5295ZM190.195 101.661C187.976 105.813 185.622 109.889 183.139 113.883L187.385 116.523C189.926 112.437 192.334 108.267 194.605 104.018L190.195 101.661ZM175.299 125.617C172.559 129.44 169.694 133.174 166.707 136.813L170.573 139.985C173.628 136.262 176.56 132.441 179.363 128.53L175.299 125.617ZM157.403 147.423C155.796 149.139 154.159 150.83 152.495 152.495L156.03 156.03C157.734 154.327 159.408 152.597 161.052 150.841L157.403 147.423ZM152.495 152.495C150.83 154.159 149.139 155.796 147.423 157.403L150.841 161.052C152.597 159.408 154.327 157.734 156.03 156.03L152.495 152.495ZM136.813 166.707C133.174 169.694 129.44 172.559 125.617 175.299L128.53 179.363C132.441 176.56 136.262 173.628 139.985 170.573L136.813 166.707ZM113.883 183.139C109.889 185.622 105.813 187.976 101.661 190.195L104.018 194.605C108.267 192.334 112.437 189.926 116.523 187.385L113.883 183.139ZM89.0045 196.437C86.8633 197.407 84.7046 198.343 82.5295 199.244L84.4429 203.863C86.6685 202.941 88.8771 201.984 91.0681 200.991L89.0045 196.437ZM82.5295 199.244C80.3544 200.145 78.1663 201.009 75.9661 201.838L77.7274 206.517C79.9785 205.67 82.2174 204.785 84.4429 203.863L82.5295 199.244ZM62.6028 206.374C58.0976 207.74 53.5513 208.958 48.9712 210.026L50.1066 214.896C54.7929 213.803 59.4446 212.557 64.0542 211.158L62.6028 206.374ZM35.1301 212.78C30.49 213.546 25.8236 214.16 21.1384 214.622L21.6285 219.597C26.4223 219.125 31.1969 218.497 35.9445 217.713L35.1301 212.78ZM7.05635 215.545C4.70676 215.621 2.35434 215.66 0 215.66V220.66C2.40892 220.66 4.81588 220.621 7.21994 220.542L7.05635 215.545ZM0 218.16H-5V223.16H0V218.16ZM2.89919e-06 151.834L-0.0130609 146.834L-5 146.847L-5 151.834H2.89919e-06ZM83.4862 201.554L81.5728 196.934L83.4862 201.554ZM154.262 154.262L157.798 157.798L154.262 154.262ZM201.554 83.4862L196.934 81.5728V81.5728L201.554 83.4862ZM218.16 0H223.16V-5H218.16V0ZM151.834 0V-5H146.847L146.834 -0.0130638L151.834 0ZM140.247 57.859L135.627 55.9456L140.247 57.859ZM57.859 140.247L55.9456 135.627H55.9456L57.859 140.247ZM5 218.16L5 209.869H-5L-5 218.16H5ZM5 193.288L5 176.706H-5L-5 193.288H5ZM5 160.125L5 151.834H-5L-5 160.125H5ZM0.0130667 156.834C2.57143 156.827 5.12658 156.758 7.67629 156.627L7.16279 146.64C4.77525 146.763 2.3826 146.828 -0.0130609 146.834L0.0130667 156.834ZM22.927 155.095C27.9825 154.337 32.9982 153.332 37.956 152.085L35.5167 142.387C30.8742 143.555 26.1775 144.496 21.4435 145.206L22.927 155.095ZM52.6206 147.626C55.0241 146.765 57.4088 145.845 59.7725 144.866L55.9456 135.627C53.7323 136.544 51.4992 137.406 49.2486 138.212L52.6206 147.626ZM59.7725 144.866C62.152 143.88 64.5044 142.838 66.8278 141.739L62.5522 132.699C60.3766 133.728 58.1738 134.704 55.9456 135.627L59.7725 144.866ZM80.4359 134.465C84.8501 131.819 89.1318 128.958 93.2655 125.893L87.3085 117.86C83.4377 120.731 79.4283 123.41 75.2948 125.888L80.4359 134.465ZM105.193 116.104C107.097 114.378 108.961 112.604 110.782 110.782L103.711 103.711C102.006 105.417 100.261 107.078 98.4775 108.694L105.193 116.104ZM110.782 110.782C112.604 108.961 114.378 107.097 116.104 105.193L108.694 98.4775C107.078 100.261 105.417 102.006 103.711 103.711L110.782 110.782ZM125.893 93.2655C128.958 89.1318 131.819 84.8501 134.465 80.4359L125.888 75.2948C123.41 79.4283 120.731 83.4377 117.86 87.3085L125.893 93.2655ZM141.739 66.8277C142.838 64.5044 143.88 62.152 144.866 59.7725L135.627 55.9456C134.704 58.1738 133.728 60.3766 132.699 62.5522L141.739 66.8277ZM144.866 59.7725C145.845 57.4088 146.765 55.0241 147.626 52.6206L138.212 49.2486C137.406 51.4992 136.544 53.7323 135.627 55.9456L144.866 59.7725ZM152.085 37.956C153.332 32.9982 154.337 27.9825 155.095 22.927L145.206 21.4435C144.496 26.1775 143.555 30.8742 142.387 35.5167L152.085 37.956ZM156.627 7.67629C156.758 5.12658 156.827 2.57143 156.834 0.0130638L146.834 -0.0130638C146.828 2.3826 146.763 4.77524 146.64 7.16279L156.627 7.67629ZM151.834 5H160.125V-5H151.834V5ZM176.706 5H193.288V-5H176.706V5ZM209.869 5H218.16V-5H209.869V5ZM213.16 0C213.16 2.32705 213.122 4.65221 213.046 6.97456L223.041 7.30174C223.12 4.87044 223.16 2.43621 223.16 0H213.16ZM212.134 20.8933C211.677 25.5243 211.07 30.1365 210.313 34.7228L220.179 36.3518C220.972 31.5503 221.608 26.7217 222.085 21.8735L212.134 20.8933ZM207.592 48.4036C206.536 52.9305 205.332 57.4242 203.981 61.8771L213.551 64.7799C214.965 60.1181 216.225 55.4137 217.33 50.6743L207.592 48.4036ZM199.498 75.0855C198.679 77.2601 197.825 79.4229 196.934 81.5728L206.173 85.3996C207.105 83.1489 208 80.8847 208.857 78.608L199.498 75.0855ZM196.934 81.5728C196.044 83.7227 195.119 85.8563 194.16 87.9728L203.268 92.0998C204.272 89.8841 205.241 87.6504 206.173 85.3996L196.934 81.5728ZM187.99 100.483C185.797 104.587 183.471 108.616 181.016 112.563L189.508 117.844C192.078 113.711 194.513 109.493 196.81 105.197L187.99 100.483ZM173.266 124.161C170.559 127.939 167.727 131.63 164.775 135.227L172.505 141.571C175.596 137.805 178.56 133.941 181.395 129.986L173.266 124.161ZM155.578 145.714C153.99 147.41 152.372 149.081 150.727 150.727L157.798 157.798C159.521 156.075 161.214 154.326 162.877 152.55L155.578 145.714ZM150.727 150.727C149.081 152.372 147.41 153.99 145.714 155.578L152.55 162.877C154.326 161.214 156.075 159.521 157.798 157.798L150.727 150.727ZM135.227 164.775C131.63 167.727 127.939 170.559 124.161 173.266L129.986 181.395C133.941 178.56 137.805 175.596 141.571 172.505L135.227 164.775ZM112.563 181.016C108.616 183.471 104.587 185.797 100.483 187.99L105.197 196.81C109.493 194.513 113.711 192.078 117.844 189.508L112.563 181.016ZM87.9728 194.16C85.8563 195.119 83.7227 196.044 81.5728 196.934L85.3996 206.173C87.6504 205.241 89.8841 204.272 92.0998 203.268L87.9728 194.16ZM81.5728 196.934C79.4229 197.825 77.2601 198.679 75.0855 199.498L78.608 208.857C80.8847 208 83.1489 207.105 85.3996 206.173L81.5728 196.934ZM61.8771 203.981C57.4241 205.332 52.9305 206.536 48.4035 207.592L50.6743 217.33C55.4136 216.225 60.1181 214.965 64.7799 213.551L61.8771 203.981ZM34.7228 210.313C30.1365 211.07 25.5242 211.677 20.8933 212.134L21.8735 222.085C26.7217 221.608 31.5503 220.972 36.3518 220.179L34.7228 210.313ZM6.97455 213.046C4.6522 213.122 2.32705 213.16 0 213.16V223.16C2.43621 223.16 4.87044 223.12 7.30174 223.041L6.97455 213.046Z" fill="#A79FFF" mask="url(#path-1-inside-1_210_1350)"/>
<mask id="path-3-inside-2_210_1350" fill="white">
<path fill-rule="evenodd" clip-rule="evenodd" d="M151.834 369.989L218.16 369.989C218.16 341.34 212.517 312.971 201.554 286.503C190.59 260.035 174.52 235.985 154.262 215.727C134.004 195.469 109.955 179.399 83.4862 168.436C57.0178 157.472 28.6492 151.829 -9.53608e-06 151.829L-6.63688e-06 218.155C19.8562 218.207 39.5119 222.143 57.859 229.743C76.3287 237.393 93.1107 248.606 107.247 262.742C121.383 276.879 132.596 293.661 140.247 312.13C147.846 330.477 151.782 350.133 151.834 369.989Z"/>
</mask>
<path fill-rule="evenodd" clip-rule="evenodd" d="M151.834 369.989L218.16 369.989C218.16 341.34 212.517 312.971 201.554 286.503C190.59 260.035 174.52 235.985 154.262 215.727C134.004 195.469 109.955 179.399 83.4862 168.436C57.0178 157.472 28.6492 151.829 -9.53608e-06 151.829L-6.63688e-06 218.155C19.8562 218.207 39.5119 222.143 57.859 229.743C76.3287 237.393 93.1107 248.606 107.247 262.742C121.383 276.879 132.596 293.661 140.247 312.13C147.846 330.477 151.782 350.133 151.834 369.989Z" fill="black"/>
<path d="M218.16 369.989L218.16 372.489L220.66 372.489L220.66 369.989L218.16 369.989ZM151.834 369.989L149.334 369.996L149.341 372.489L151.834 372.489L151.834 369.989ZM201.554 286.503L199.244 287.46L199.244 287.46L201.554 286.503ZM154.262 215.727L156.03 213.959L154.262 215.727ZM83.4862 168.436L82.5295 170.745L83.4862 168.436ZM-9.53608e-06 151.829L-9.64536e-06 149.329L-2.50001 149.329L-2.50001 151.829L-9.53608e-06 151.829ZM-6.63688e-06 218.155L-2.50001 218.155L-2.50001 220.649L-0.00653845 220.655L-6.63688e-06 218.155ZM57.859 229.743L56.9023 232.052L57.859 229.743ZM140.247 312.13L137.937 313.087L140.247 312.13ZM218.16 367.489L209.869 367.489L209.869 372.489L218.16 372.489L218.16 367.489ZM193.288 367.489L176.706 367.489L176.706 372.489L193.288 372.489L193.288 367.489ZM160.125 367.489L151.834 367.489L151.834 372.489L160.125 372.489L160.125 367.489ZM154.334 369.983C154.328 367.465 154.26 364.951 154.131 362.441L149.137 362.698C149.262 365.126 149.328 367.559 149.334 369.996L154.334 369.983ZM152.623 347.433C151.876 342.458 150.888 337.522 149.661 332.643L144.812 333.863C145.999 338.584 146.956 343.36 147.678 348.175L152.623 347.433ZM145.273 318.212C144.425 315.846 143.52 313.5 142.556 311.173L137.937 313.087C138.869 315.338 139.746 317.609 140.565 319.898L145.273 318.212ZM142.556 311.173C141.586 308.832 140.56 306.517 139.479 304.23L134.959 306.368C136.005 308.581 136.998 310.821 137.937 313.087L142.556 311.173ZM132.321 290.839C129.717 286.495 126.901 282.281 123.885 278.213L119.868 281.192C122.788 285.128 125.512 289.205 128.032 293.409L132.321 290.839ZM114.251 266.475C112.553 264.601 110.807 262.767 109.015 260.975L105.479 264.51C107.213 266.245 108.903 268.019 110.547 269.833L114.251 266.475ZM109.015 260.975C107.222 259.182 105.388 257.436 103.514 255.738L100.156 259.443C101.97 261.086 103.745 262.776 105.479 264.51L109.015 260.975ZM91.7762 246.105C87.7083 243.088 83.4946 240.272 79.1506 237.669L76.5801 241.957C80.7838 244.477 84.8612 247.201 88.7977 250.121L91.7762 246.105ZM65.7589 230.511C63.4724 229.429 61.1574 228.403 58.8157 227.433L56.9023 232.052C59.1683 232.991 61.4085 233.984 63.6211 235.03L65.7589 230.511ZM58.8157 227.433C56.4897 226.469 54.1429 225.564 51.7776 224.717L50.0916 229.424C52.3804 230.244 54.6514 231.12 56.9023 232.052L58.8157 227.433ZM37.3462 220.329C32.4672 219.101 27.5313 218.113 22.5561 217.367L21.8144 222.311C26.6288 223.033 31.4052 223.99 36.1265 225.178L37.3462 220.329ZM7.54791 215.859C5.03874 215.73 2.52422 215.662 0.00652518 215.655L-0.00653845 220.655C2.4298 220.661 4.86307 220.727 7.29115 220.852L7.54791 215.859ZM2.49999 218.155L2.49999 209.864L-2.50001 209.864L-2.50001 218.155L2.49999 218.155ZM2.49999 193.283L2.49999 176.701L-2.50001 176.701L-2.50001 193.283L2.49999 193.283ZM2.49999 160.12L2.49999 151.829L-2.50001 151.829L-2.50001 160.12L2.49999 160.12ZM-9.4268e-06 154.329C2.35433 154.329 4.70676 154.368 7.05635 154.445L7.21994 149.447C4.81588 149.369 2.40891 149.329 -9.64536e-06 149.329L-9.4268e-06 154.329ZM21.1384 155.368C25.8236 155.829 30.49 156.444 35.1301 157.21L35.9445 152.277C31.1969 151.493 26.4223 150.864 21.6285 150.392L21.1384 155.368ZM48.9712 159.963C53.5513 161.031 58.0976 162.249 62.6028 163.615L64.0542 158.831C59.4446 157.432 54.7929 156.186 50.1066 155.094L48.9712 159.963ZM75.9661 168.152C78.1663 168.98 80.3544 169.844 82.5295 170.745L84.4429 166.126C82.2174 165.204 79.9785 164.319 77.7274 163.472L75.9661 168.152ZM82.5295 170.745C84.7046 171.646 86.8632 172.582 89.0045 173.552L91.0681 168.998C88.8771 168.005 86.6685 167.048 84.4429 166.126L82.5295 170.745ZM101.661 179.794C105.813 182.013 109.889 184.367 113.883 186.85L116.523 182.604C112.437 180.063 108.267 177.655 104.018 175.384L101.661 179.794ZM125.617 194.691C129.44 197.43 133.174 200.295 136.813 203.282L139.985 199.417C136.262 196.361 132.441 193.429 128.53 190.626L125.617 194.691ZM147.423 212.587C149.139 214.194 150.83 215.83 152.495 217.495L156.03 213.959C154.327 212.256 152.597 210.582 150.841 208.937L147.423 212.587ZM152.495 217.495C154.159 219.159 155.796 220.85 157.403 222.566L161.052 219.148C159.408 217.392 157.734 215.662 156.03 213.959L152.495 217.495ZM166.707 233.176C169.694 236.815 172.559 240.549 175.299 244.372L179.363 241.46C176.56 237.548 173.628 233.728 170.573 230.004L166.707 233.176ZM183.139 256.106C185.622 260.1 187.976 264.176 190.195 268.328L194.605 265.971C192.334 261.723 189.926 257.552 187.385 253.466L183.139 256.106ZM196.437 280.985C197.407 283.126 198.343 285.285 199.244 287.46L203.863 285.546C202.941 283.321 201.984 281.112 200.991 278.921L196.437 280.985ZM199.244 287.46C200.145 289.635 201.009 291.823 201.838 294.023L206.517 292.262C205.67 290.011 204.785 287.772 203.863 285.546L199.244 287.46ZM206.374 307.386C207.74 311.892 208.958 316.438 210.026 321.018L214.896 319.883C213.803 315.196 212.557 310.545 211.158 305.935L206.374 307.386ZM212.78 334.859C213.546 339.499 214.16 344.166 214.622 348.851L219.597 348.361C219.125 343.567 218.497 338.792 217.713 334.045L212.78 334.859ZM215.545 362.933C215.621 365.282 215.66 367.635 215.66 369.989L220.66 369.989C220.66 367.58 220.621 365.173 220.542 362.769L215.545 362.933ZM218.16 369.989L218.16 374.989L223.16 374.989L223.16 369.989L218.16 369.989ZM151.834 369.989L146.834 370.002L146.847 374.989L151.834 374.989L151.834 369.989ZM201.554 286.503L196.934 288.416L201.554 286.503ZM154.262 215.727L157.798 212.191L154.262 215.727ZM83.4862 168.436L81.5728 173.055L81.5728 173.055L83.4862 168.436ZM-9.53608e-06 151.829L-9.75463e-06 146.829L-5.00001 146.829L-5.00001 151.829L-9.53608e-06 151.829ZM-6.63688e-06 218.155L-5.00001 218.155L-5.00001 223.142L-0.0130703 223.155L-6.63688e-06 218.155ZM57.859 229.743L55.9456 234.362L57.859 229.743ZM140.247 312.13L135.627 314.044L135.627 314.044L140.247 312.13ZM218.16 364.989L209.869 364.989L209.869 374.989L218.16 374.989L218.16 364.989ZM193.288 364.989L176.706 364.989L176.706 374.989L193.288 374.989L193.288 364.989ZM160.125 364.989L151.834 364.989L151.834 374.989L160.125 374.989L160.125 364.989ZM156.834 369.976C156.827 367.418 156.758 364.863 156.627 362.313L146.64 362.826C146.763 365.214 146.828 367.607 146.834 370.002L156.834 369.976ZM155.095 347.062C154.337 342.007 153.332 336.991 152.085 332.033L142.387 334.473C143.555 339.115 144.496 343.812 145.206 348.546L155.095 347.062ZM147.626 317.369C146.765 314.965 145.845 312.58 144.866 310.217L135.627 314.044C136.544 316.257 137.406 318.49 138.212 320.741L147.626 317.369ZM144.866 310.217C143.88 307.837 142.838 305.485 141.739 303.162L132.699 307.437C133.728 309.613 134.704 311.815 135.627 314.044L144.866 310.217ZM134.465 289.553C131.819 285.139 128.958 280.857 125.893 276.724L117.86 282.681C120.731 286.552 123.41 290.561 125.888 294.694L134.465 289.553ZM116.104 264.796C114.378 262.892 112.604 261.028 110.782 259.207L103.711 266.278C105.417 267.983 107.078 269.729 108.694 271.512L116.104 264.796ZM110.782 259.207C108.961 257.386 107.097 255.611 105.193 253.885L98.4775 261.295C100.261 262.911 102.006 264.573 103.711 266.278L110.782 259.207ZM93.2655 244.097C89.1318 241.031 84.8501 238.17 80.4358 235.524L75.2948 244.102C79.4283 246.579 83.4377 249.258 87.3085 252.129L93.2655 244.097ZM66.8277 228.251C64.5044 227.152 62.152 226.109 59.7725 225.123L55.9456 234.362C58.1738 235.285 60.3766 236.261 62.5522 237.29L66.8277 228.251ZM59.7725 225.123C57.4088 224.144 55.0241 223.224 52.6206 222.363L49.2486 231.777C51.4992 232.583 53.7323 233.445 55.9456 234.362L59.7725 225.123ZM37.956 217.904C32.9982 216.657 27.9825 215.653 22.927 214.894L21.4435 224.784C26.1775 225.494 30.8742 226.434 35.5167 227.602L37.956 217.904ZM7.67628 213.362C5.12657 213.231 2.57142 213.162 0.013057 213.155L-0.0130703 223.155C2.3826 223.161 4.77524 223.226 7.16278 223.349L7.67628 213.362ZM4.99999 218.155L4.99999 209.864L-5.00001 209.864L-5.00001 218.155L4.99999 218.155ZM4.99999 193.283L4.99999 176.701L-5.00001 176.701L-5.00001 193.283L4.99999 193.283ZM4.99999 160.12L4.99999 151.829L-5.00001 151.829L-5.00001 160.12L4.99999 160.12ZM-9.31752e-06 156.829C2.32704 156.829 4.6522 156.867 6.97455 156.943L7.30173 146.949C4.87043 146.869 2.4362 146.829 -9.75463e-06 146.829L-9.31752e-06 156.829ZM20.8933 157.856C25.5242 158.312 30.1365 158.919 34.7228 159.676L36.3518 149.81C31.5503 149.017 26.7217 148.381 21.8735 147.904L20.8933 157.856ZM48.4036 162.398C52.9305 163.453 57.4241 164.657 61.8771 166.008L64.7799 156.438C60.1181 155.024 55.4136 153.764 50.6743 152.659L48.4036 162.398ZM75.0855 170.491C77.2601 171.31 79.4229 172.165 81.5728 173.055L85.3996 163.816C83.1489 162.884 80.8847 161.989 78.608 161.132L75.0855 170.491ZM81.5728 173.055C83.7227 173.946 85.8563 174.871 87.9728 175.83L92.0998 166.721C89.8841 165.717 87.6504 164.749 85.3996 163.816L81.5728 173.055ZM100.483 181.999C104.587 184.192 108.616 186.519 112.563 188.973L117.844 180.481C113.711 177.911 109.493 175.476 105.197 173.18L100.483 181.999ZM124.161 196.723C127.939 199.43 131.63 202.262 135.227 205.214L141.571 197.484C137.805 194.394 133.941 191.429 129.986 188.594L124.161 196.723ZM145.714 214.411C147.41 216 149.081 217.617 150.727 219.262L157.798 212.191C156.075 210.469 154.326 208.776 152.55 207.113L145.714 214.411ZM150.727 219.262C152.372 220.908 153.99 222.579 155.578 224.275L162.877 217.439C161.214 215.663 159.521 213.914 157.798 212.191L150.727 219.262ZM164.775 234.762C167.727 238.359 170.559 242.05 173.266 245.828L181.395 240.004C178.56 236.048 175.596 232.184 172.505 228.418L164.775 234.762ZM181.016 257.426C183.471 261.374 185.797 265.402 187.99 269.506L196.81 264.792C194.513 260.496 192.078 256.278 189.508 252.146L181.016 257.426ZM194.16 282.016C195.119 284.133 196.044 286.267 196.934 288.416L206.173 284.59C205.241 282.339 204.272 280.105 203.268 277.889L194.16 282.016ZM196.934 288.416C197.825 290.566 198.679 292.729 199.498 294.904L208.857 291.381C208 289.105 207.105 286.84 206.173 284.59L196.934 288.416ZM203.981 308.112C205.332 312.565 206.536 317.059 207.592 321.586L217.33 319.315C216.225 314.576 214.965 309.871 213.551 305.209L203.981 308.112ZM210.313 335.266C211.07 339.853 211.677 344.465 212.134 349.096L222.085 348.116C221.608 343.268 220.972 338.439 220.179 333.637L210.313 335.266ZM213.046 363.015C213.122 365.337 213.16 367.662 213.16 369.989L223.16 369.989C223.16 367.553 223.12 365.119 223.041 362.688L213.046 363.015Z" fill="#A79FFF" mask="url(#path-3-inside-2_210_1350)"/>
<mask id="path-5-inside-3_210_1350" fill="white">
<path fill-rule="evenodd" clip-rule="evenodd" d="M370 218.159L370 151.833C341.351 151.833 312.982 157.476 286.514 168.44C260.045 179.403 235.996 195.473 215.738 215.731C195.48 235.989 179.41 260.039 168.446 286.507C157.483 312.975 151.84 341.344 151.84 369.993L218.166 369.993C218.218 350.137 222.154 330.481 229.753 312.134C237.404 293.664 248.617 276.882 262.753 262.746C276.889 248.61 293.671 237.397 312.141 229.746C330.488 222.147 350.144 218.211 370 218.159Z"/>
</mask>
<path fill-rule="evenodd" clip-rule="evenodd" d="M370 218.159L370 151.833C341.351 151.833 312.982 157.476 286.514 168.44C260.045 179.403 235.996 195.473 215.738 215.731C195.48 235.989 179.41 260.039 168.446 286.507C157.483 312.975 151.84 341.344 151.84 369.993L218.166 369.993C218.218 350.137 222.154 330.481 229.753 312.134C237.404 293.664 248.617 276.882 262.753 262.746C276.889 248.61 293.671 237.397 312.141 229.746C330.488 222.147 350.144 218.211 370 218.159Z" fill="black"/>
<path d="M370 151.833L372.5 151.833L372.5 149.333L370 149.333L370 151.833ZM370 218.159L370.007 220.659L372.5 220.652L372.5 218.159L370 218.159ZM286.514 168.44L287.47 170.749L287.471 170.749L286.514 168.44ZM215.738 215.731L213.97 213.963L215.738 215.731ZM168.446 286.507L170.756 287.464L168.446 286.507ZM151.84 369.993L149.34 369.993L149.34 372.493L151.84 372.493L151.84 369.993ZM218.166 369.993L218.166 372.493L220.659 372.493L220.666 370L218.166 369.993ZM229.753 312.134L232.063 313.091L229.753 312.134ZM312.141 229.746L313.098 232.056L312.141 229.746ZM367.5 151.833L367.5 160.124L372.5 160.124L372.5 151.833L367.5 151.833ZM367.5 176.705L367.5 193.287L372.5 193.287L372.5 176.705L367.5 176.705ZM367.5 209.868L367.5 218.159L372.5 218.159L372.5 209.868L367.5 209.868ZM369.993 215.659C367.476 215.666 364.961 215.734 362.452 215.863L362.709 220.856C365.137 220.731 367.57 220.665 370.007 220.659L369.993 215.659ZM347.444 217.37C342.469 218.117 337.533 219.105 332.654 220.333L333.873 225.181C338.595 223.994 343.371 223.037 348.186 222.315L347.444 217.37ZM318.222 224.721C315.857 225.568 313.51 226.473 311.184 227.437L313.098 232.056C315.349 231.124 317.62 230.248 319.908 229.428L318.222 224.721ZM311.184 227.437C308.843 228.407 306.528 229.433 304.241 230.514L306.379 235.034C308.591 233.988 310.832 232.995 313.098 232.056L311.184 227.437ZM290.849 237.672C286.505 240.276 282.292 243.092 278.224 246.109L281.202 250.125C285.139 247.205 289.216 244.481 293.42 241.961L290.849 237.672ZM266.486 255.742C264.612 257.44 262.778 259.186 260.985 260.979L264.521 264.514C266.255 262.78 268.03 261.09 269.844 259.447L266.486 255.742ZM260.985 260.979C259.193 262.771 257.447 264.605 255.749 266.479L259.453 269.837C261.097 268.023 262.787 266.248 264.521 264.514L260.985 260.979ZM246.115 278.217C243.099 282.285 240.283 286.499 237.679 290.843L241.968 293.413C244.488 289.209 247.212 285.132 250.132 281.195L246.115 278.217ZM230.521 304.234C229.44 306.521 228.414 308.836 227.444 311.177L232.063 313.091C233.002 310.825 233.995 308.585 235.041 306.372L230.521 304.234ZM227.444 311.177C226.48 313.504 225.575 315.85 224.727 318.216L229.435 319.902C230.254 317.613 231.131 315.342 232.063 313.091L227.444 311.177ZM220.339 332.647C219.112 337.526 218.124 342.462 217.377 347.437L222.322 348.179C223.044 343.364 224.001 338.588 225.188 333.867L220.339 332.647ZM215.869 362.445C215.74 364.954 215.672 367.469 215.666 369.987L220.666 370C220.672 367.563 220.738 365.13 220.863 362.702L215.869 362.445ZM218.166 367.493L209.875 367.493L209.875 372.493L218.166 372.493L218.166 367.493ZM193.294 367.493L176.712 367.493L176.712 372.493L193.294 372.493L193.294 367.493ZM160.131 367.493L151.84 367.493L151.84 372.493L160.131 372.493L160.131 367.493ZM154.34 369.993C154.34 367.639 154.379 365.286 154.455 362.937L149.458 362.773C149.379 365.177 149.34 367.584 149.34 369.993L154.34 369.993ZM155.378 348.855C155.84 344.17 156.454 339.503 157.22 334.863L152.287 334.049C151.503 338.796 150.875 343.571 150.403 348.365L155.378 348.855ZM159.974 321.022C161.042 316.442 162.26 311.896 163.626 307.39L158.842 305.939C157.443 310.549 156.197 315.2 155.104 319.887L159.974 321.022ZM168.162 294.027C168.991 291.827 169.855 289.639 170.756 287.464L166.137 285.55C165.215 287.776 164.33 290.015 163.483 292.266L168.162 294.027ZM170.756 287.464C171.657 285.289 172.593 283.13 173.563 280.989L169.009 278.925C168.016 281.116 167.059 283.325 166.137 285.55L170.756 287.464ZM179.805 268.332C182.024 264.18 184.378 260.104 186.861 256.11L182.615 253.47C180.074 257.556 177.666 261.726 175.395 265.975L179.805 268.332ZM194.701 244.376C197.441 240.553 200.306 236.819 203.293 233.18L199.428 230.008C196.372 233.732 193.44 237.552 190.637 241.464L194.701 244.376ZM212.597 222.57C214.204 220.854 215.841 219.163 217.505 217.498L213.97 213.963C212.266 215.666 210.592 217.396 208.948 219.152L212.597 222.57ZM217.505 217.498C219.17 215.834 220.861 214.198 222.577 212.591L219.159 208.941C217.403 210.586 215.673 212.26 213.97 213.963L217.505 217.498ZM233.187 203.286C236.826 200.299 240.56 197.434 244.383 194.695L241.471 190.63C237.559 193.433 233.738 196.365 230.015 199.421L233.187 203.286ZM256.117 186.854C260.111 184.371 264.187 182.017 268.339 179.798L265.982 175.388C261.733 177.659 257.563 180.067 253.477 182.608L256.117 186.854ZM280.995 173.556C283.137 172.586 285.295 171.65 287.47 170.749L285.557 166.13C283.332 167.052 281.123 168.009 278.932 169.002L280.995 173.556ZM287.471 170.749C289.646 169.848 291.834 168.984 294.034 168.156L292.273 163.476C290.021 164.323 287.783 165.208 285.557 166.13L287.471 170.749ZM307.397 163.619C311.902 162.253 316.449 161.035 321.029 159.967L319.893 155.097C315.207 156.19 310.555 157.436 305.946 158.835L307.397 163.619ZM334.87 157.214C339.51 156.448 344.176 155.833 348.862 155.372L348.372 150.396C343.578 150.868 338.803 151.497 334.055 152.28L334.87 157.214ZM362.944 154.449C365.293 154.372 367.646 154.333 370 154.333L370 149.333C367.591 149.333 365.184 149.373 362.78 149.451L362.944 154.449ZM370 151.833L375 151.833L375 146.833L370 146.833L370 151.833ZM370 218.159L370.013 223.159L375 223.146L375 218.159L370 218.159ZM286.514 168.44L288.427 173.059L286.514 168.44ZM215.738 215.731L212.202 212.195L215.738 215.731ZM168.446 286.507L173.066 288.42L173.066 288.42L168.446 286.507ZM151.84 369.993L146.84 369.993L146.84 374.993L151.84 374.993L151.84 369.993ZM218.166 369.993L218.166 374.993L223.153 374.993L223.166 370.006L218.166 369.993ZM229.753 312.134L234.373 314.048L229.753 312.134ZM312.141 229.746L314.054 234.366L314.054 234.366L312.141 229.746ZM365 151.833L365 160.124L375 160.124L375 151.833L365 151.833ZM365 176.705L365 193.287L375 193.287L375 176.705L365 176.705ZM365 209.868L365 218.159L375 218.159L375 209.868L365 209.868ZM369.987 213.159C367.429 213.166 364.873 213.235 362.324 213.366L362.837 223.353C365.225 223.23 367.617 223.165 370.013 223.159L369.987 213.159ZM347.073 214.898C342.017 215.657 337.002 216.661 332.044 217.908L334.483 227.606C339.126 226.438 343.822 225.498 348.556 224.788L347.073 214.898ZM317.379 222.367C314.976 223.228 312.591 224.148 310.228 225.127L314.054 234.366C316.268 233.449 318.501 232.587 320.751 231.781L317.379 222.367ZM310.228 225.127C307.848 226.113 305.496 227.156 303.172 228.254L307.448 237.294C309.623 236.265 311.826 235.289 314.054 234.366L310.228 225.127ZM289.564 235.528C285.15 238.174 280.868 241.035 276.735 244.101L282.692 252.133C286.562 249.262 290.572 246.583 294.705 244.105L289.564 235.528ZM264.807 253.889C262.903 255.615 261.039 257.39 259.218 259.211L266.289 266.282C267.994 264.576 269.739 262.915 271.523 261.299L264.807 253.889ZM259.218 259.211C257.396 261.032 255.622 262.896 253.896 264.8L261.306 271.516C262.922 269.732 264.583 267.987 266.289 266.282L259.218 259.211ZM244.107 276.728C241.042 280.861 238.181 285.143 235.535 289.557L244.112 294.698C246.59 290.565 249.269 286.555 252.14 282.685L244.107 276.728ZM228.261 303.165C227.162 305.489 226.12 307.841 225.134 310.221L234.373 314.048C235.296 311.819 236.272 309.617 237.301 307.441L228.261 303.165ZM225.134 310.221C224.155 312.584 223.235 314.969 222.374 317.373L231.788 320.745C232.594 318.494 233.456 316.261 234.373 314.048L225.134 310.221ZM217.915 332.037C216.668 336.995 215.663 342.011 214.905 347.066L224.794 348.55C225.504 343.816 226.445 339.119 227.613 334.476L217.915 332.037ZM213.373 362.317C213.242 364.867 213.173 367.422 213.166 369.98L223.166 370.006C223.172 367.611 223.237 365.218 223.36 362.83L213.373 362.317ZM218.166 364.993L209.875 364.993L209.875 374.993L218.166 374.993L218.166 364.993ZM193.294 364.993L176.712 364.993L176.712 374.993L193.294 374.993L193.294 364.993ZM160.131 364.993L151.84 364.993L151.84 374.993L160.131 374.993L160.131 364.993ZM156.84 369.993C156.84 367.666 156.878 365.341 156.954 363.019L146.959 362.691C146.88 365.123 146.84 367.557 146.84 369.993L156.84 369.993ZM157.866 349.1C158.323 344.469 158.93 339.857 159.687 335.27L149.821 333.641C149.028 338.443 148.392 343.271 147.915 348.12L157.866 349.1ZM162.408 321.59C163.464 317.063 164.668 312.569 166.019 308.116L156.449 305.213C155.035 309.875 153.775 314.579 152.67 319.319L162.408 321.59ZM170.502 294.908C171.321 292.733 172.175 290.57 173.066 288.42L163.827 284.594C162.895 286.844 162 289.108 161.143 291.385L170.502 294.908ZM173.066 288.42C173.956 286.27 174.881 284.137 175.84 282.02L166.732 277.893C165.728 280.109 164.759 282.343 163.827 284.594L173.066 288.42ZM182.01 269.51C184.203 265.406 186.529 261.378 188.984 257.43L180.492 252.149C177.922 256.282 175.487 260.5 173.19 264.796L182.01 269.51ZM196.734 245.832C199.441 242.054 202.273 238.363 205.225 234.766L197.495 228.422C194.404 232.188 191.44 236.052 188.605 240.007L196.734 245.832ZM214.422 224.279C216.01 222.583 217.628 220.912 219.273 219.266L212.202 212.195C210.479 213.918 208.786 215.667 207.123 217.443L214.422 224.279ZM219.273 219.266C220.919 217.621 222.59 216.004 224.286 214.415L217.45 207.117C215.674 208.779 213.925 210.473 212.202 212.195L219.273 219.266ZM234.773 205.218C238.37 202.266 242.061 199.434 245.839 196.727L240.014 188.598C236.059 191.433 232.195 194.398 228.429 197.488L234.773 205.218ZM257.437 188.977C261.384 186.523 265.413 184.196 269.517 182.003L264.803 173.184C260.507 175.48 256.289 177.915 252.156 180.485L257.437 188.977ZM282.027 175.833C284.144 174.875 286.277 173.95 288.427 173.059L284.6 163.82C282.35 164.752 280.116 165.721 277.9 166.725L282.027 175.833ZM288.427 173.059C290.577 172.168 292.74 171.314 294.915 170.495L291.392 161.136C289.115 161.993 286.851 162.888 284.6 163.82L288.427 173.059ZM308.123 166.012C312.576 164.661 317.07 163.457 321.596 162.402L319.326 152.663C314.586 153.768 309.882 155.028 305.22 156.442L308.123 166.012ZM335.277 159.68C339.864 158.923 344.476 158.316 349.107 157.86L348.127 147.908C343.278 148.385 338.45 149.021 333.648 149.814L335.277 159.68ZM363.025 156.947C365.348 156.871 367.673 156.833 370 156.833L370 146.833C367.564 146.833 365.13 146.873 362.698 146.953L363.025 156.947Z" fill="#A79FFF" mask="url(#path-5-inside-3_210_1350)"/>
<mask id="path-7-inside-4_210_1350" fill="white">
<path fill-rule="evenodd" clip-rule="evenodd" d="M370 151.834L370 218.16C341.351 218.16 312.982 212.517 286.514 201.554C260.045 190.59 235.996 174.52 215.738 154.262C195.48 134.004 179.41 109.955 168.446 83.4862C157.483 57.0178 151.84 28.6492 151.84 -1.90722e-05L218.166 -1.32738e-05C218.218 19.8562 222.154 39.5119 229.753 57.859C237.404 76.3287 248.617 93.1107 262.753 107.247C276.889 121.383 293.671 132.596 312.141 140.247C330.488 147.846 350.144 151.782 370 151.834Z"/>
</mask>
<path fill-rule="evenodd" clip-rule="evenodd" d="M370 151.834L370 218.16C341.351 218.16 312.982 212.517 286.514 201.554C260.045 190.59 235.996 174.52 215.738 154.262C195.48 134.004 179.41 109.955 168.446 83.4862C157.483 57.0178 151.84 28.6492 151.84 -1.90722e-05L218.166 -1.32738e-05C218.218 19.8562 222.154 39.5119 229.753 57.859C237.404 76.3287 248.617 93.1107 262.753 107.247C276.889 121.383 293.671 132.596 312.141 140.247C330.488 147.846 350.144 151.782 370 151.834Z" fill="black"/>
<path d="M370 218.16L372.5 218.16L372.5 220.66L370 220.66L370 218.16ZM370 151.834L370.007 149.334L372.5 149.341L372.5 151.834L370 151.834ZM286.514 201.554L287.47 199.244L287.47 199.244L286.514 201.554ZM215.738 154.262L213.97 156.03L215.738 154.262ZM168.446 83.4862L170.756 82.5295L168.446 83.4862ZM151.84 -1.90722e-05L149.34 -1.92907e-05L149.34 -2.50002L151.84 -2.50002L151.84 -1.90722e-05ZM218.166 -1.32738e-05L218.166 -2.50001L220.659 -2.50001L220.666 -0.00654498L218.166 -1.32738e-05ZM229.753 57.859L232.063 56.9023L229.753 57.859ZM312.141 140.247L313.098 137.937L312.141 140.247ZM367.5 218.16L367.5 209.869L372.5 209.869L372.5 218.16L367.5 218.16ZM367.5 193.288L367.5 176.706L372.5 176.706L372.5 193.288L367.5 193.288ZM367.5 160.125L367.5 151.834L372.5 151.834L372.5 160.125L367.5 160.125ZM369.993 154.334C367.476 154.328 364.961 154.26 362.452 154.131L362.709 149.137C365.137 149.262 367.57 149.328 370.007 149.334L369.993 154.334ZM347.444 152.623C342.469 151.876 337.533 150.888 332.654 149.661L333.873 144.812C338.595 145.999 343.371 146.956 348.186 147.678L347.444 152.623ZM318.222 145.273C315.857 144.425 313.51 143.52 311.184 142.556L313.098 137.937C315.349 138.869 317.62 139.746 319.908 140.565L318.222 145.273ZM311.184 142.556C308.843 141.586 306.528 140.56 304.241 139.479L306.379 134.959C308.591 136.005 310.832 136.998 313.098 137.937L311.184 142.556ZM290.849 132.321C286.505 129.717 282.292 126.901 278.224 123.884L281.202 119.868C285.139 122.788 289.216 125.512 293.42 128.032L290.849 132.321ZM266.486 114.251C264.612 112.553 262.778 110.807 260.985 109.015L264.521 105.479C266.255 107.213 268.03 108.903 269.844 110.547L266.486 114.251ZM260.985 109.015C259.193 107.222 257.447 105.388 255.749 103.514L259.453 100.156C261.097 101.97 262.787 103.745 264.521 105.479L260.985 109.015ZM246.115 91.7762C243.098 87.7083 240.283 83.4946 237.679 79.1506L241.968 76.5801C244.488 80.7837 247.212 84.8612 250.132 88.7977L246.115 91.7762ZM230.521 65.7588C229.44 63.4724 228.414 61.1574 227.444 58.8157L232.063 56.9023C233.002 59.1683 233.995 61.4085 235.041 63.6211L230.521 65.7588ZM227.444 58.8157C226.48 56.4896 225.575 54.1429 224.727 51.7776L229.435 50.0916C230.254 52.3804 231.131 54.6514 232.063 56.9023L227.444 58.8157ZM220.339 37.3462C219.112 32.4672 218.124 27.5313 217.377 22.5561L222.322 21.8144C223.044 26.6288 224.001 31.4052 225.188 36.1265L220.339 37.3462ZM215.869 7.5479C215.74 5.03873 215.672 2.52421 215.666 0.00651843L220.666 -0.00654498C220.672 2.4298 220.738 4.86307 220.863 7.29115L215.869 7.5479ZM218.166 2.49999L209.875 2.49999L209.875 -2.50001L218.166 -2.50001L218.166 2.49999ZM193.294 2.49998L176.712 2.49998L176.712 -2.50002L193.294 -2.50002L193.294 2.49998ZM160.131 2.49998L151.84 2.49998L151.84 -2.50002L160.131 -2.50002L160.131 2.49998ZM154.34 -1.88536e-05C154.34 2.35432 154.379 4.70675 154.455 7.05634L149.458 7.21993C149.379 4.81587 149.34 2.4089 149.34 -1.92907e-05L154.34 -1.88536e-05ZM155.378 21.1384C155.84 25.8236 156.454 30.49 157.22 35.1301L152.287 35.9445C151.503 31.1969 150.875 26.4223 150.403 21.6285L155.378 21.1384ZM159.974 48.9712C161.042 53.5513 162.26 58.0976 163.626 62.6028L158.842 64.0542C157.443 59.4446 156.197 54.7929 155.104 50.1066L159.974 48.9712ZM168.162 75.9661C168.991 78.1663 169.855 80.3544 170.756 82.5295L166.137 84.4429C165.215 82.2174 164.33 79.9785 163.483 77.7273L168.162 75.9661ZM170.756 82.5295C171.657 84.7046 172.593 86.8632 173.563 89.0045L169.009 91.0681C168.016 88.8771 167.059 86.6685 166.137 84.4429L170.756 82.5295ZM179.805 101.661C182.024 105.813 184.378 109.889 186.861 113.883L182.615 116.523C180.074 112.437 177.666 108.267 175.395 104.018L179.805 101.661ZM194.701 125.617C197.441 129.44 200.306 133.174 203.293 136.813L199.427 139.985C196.372 136.262 193.44 132.441 190.637 128.529L194.701 125.617ZM212.597 147.423C214.204 149.139 215.841 150.83 217.505 152.495L213.97 156.03C212.266 154.327 210.592 152.597 208.948 150.841L212.597 147.423ZM217.505 152.495C219.17 154.159 220.861 155.796 222.577 157.403L219.159 161.052C217.403 159.408 215.673 157.734 213.97 156.03L217.505 152.495ZM233.187 166.707C236.826 169.694 240.56 172.559 244.383 175.299L241.47 179.363C237.559 176.56 233.738 173.628 230.015 170.572L233.187 166.707ZM256.117 183.139C260.111 185.622 264.187 187.976 268.339 190.195L265.982 194.605C261.733 192.334 257.563 189.926 253.477 187.385L256.117 183.139ZM280.995 196.437C283.137 197.407 285.295 198.343 287.47 199.244L285.557 203.863C283.331 202.941 281.123 201.984 278.932 200.991L280.995 196.437ZM287.47 199.244C289.646 200.145 291.834 201.009 294.034 201.838L292.273 206.517C290.021 205.67 287.783 204.785 285.557 203.863L287.47 199.244ZM307.397 206.374C311.902 207.74 316.449 208.958 321.029 210.026L319.893 214.896C315.207 213.803 310.555 212.557 305.946 211.158L307.397 206.374ZM334.87 212.78C339.51 213.546 344.176 214.16 348.862 214.622L348.372 219.597C343.578 219.125 338.803 218.497 334.055 217.713L334.87 212.78ZM362.944 215.545C365.293 215.621 367.646 215.66 370 215.66L370 220.66C367.591 220.66 365.184 220.621 362.78 220.542L362.944 215.545ZM370 218.16L375 218.16L375 223.16L370 223.16L370 218.16ZM370 151.834L370.013 146.834L375 146.847L375 151.834L370 151.834ZM286.514 201.554L288.427 196.934L286.514 201.554ZM215.738 154.262L212.202 157.798L215.738 154.262ZM168.446 83.4862L173.066 81.5728L173.066 81.5728L168.446 83.4862ZM151.84 -1.90722e-05L146.84 -1.95093e-05L146.84 -5.00002L151.84 -5.00002L151.84 -1.90722e-05ZM218.166 -1.32738e-05L218.166 -5.00001L223.153 -5.00001L223.166 -0.0130767L218.166 -1.32738e-05ZM229.753 57.859L234.373 55.9456L229.753 57.859ZM312.141 140.247L314.054 135.627L314.054 135.627L312.141 140.247ZM365 218.16L365 209.869L375 209.869L375 218.16L365 218.16ZM365 193.288L365 176.706L375 176.706L375 193.288L365 193.288ZM365 160.125L365 151.834L375 151.834L375 160.125L365 160.125ZM369.987 156.834C367.429 156.827 364.873 156.758 362.324 156.627L362.837 146.64C365.225 146.763 367.617 146.828 370.013 146.834L369.987 156.834ZM347.073 155.095C342.017 154.337 337.002 153.332 332.044 152.085L334.483 142.387C339.126 143.555 343.822 144.496 348.556 145.206L347.073 155.095ZM317.379 147.626C314.976 146.765 312.591 145.845 310.228 144.866L314.054 135.627C316.268 136.544 318.501 137.406 320.751 138.212L317.379 147.626ZM310.228 144.866C307.848 143.88 305.496 142.838 303.172 141.739L307.448 132.699C309.623 133.728 311.826 134.704 314.054 135.627L310.228 144.866ZM289.564 134.465C285.15 131.819 280.868 128.958 276.735 125.893L282.691 117.86C286.562 120.731 290.572 123.41 294.705 125.888L289.564 134.465ZM264.807 116.104C262.903 114.378 261.039 112.604 259.218 110.782L266.289 103.711C267.994 105.417 269.739 107.078 271.522 108.694L264.807 116.104ZM259.218 110.782C257.396 108.961 255.622 107.097 253.896 105.193L261.306 98.4775C262.922 100.261 264.583 102.006 266.289 103.711L259.218 110.782ZM244.107 93.2655C241.042 89.1318 238.181 84.8501 235.535 80.4358L244.112 75.2948C246.59 79.4283 249.269 83.4377 252.14 87.3085L244.107 93.2655ZM228.261 66.8277C227.162 64.5044 226.12 62.152 225.134 59.7724L234.373 55.9456C235.296 58.1738 236.272 60.3766 237.301 62.5522L228.261 66.8277ZM225.134 59.7724C224.155 57.4088 223.235 55.0241 222.374 52.6206L231.788 49.2486C232.594 51.4992 233.456 53.7323 234.373 55.9456L225.134 59.7724ZM217.915 37.956C216.668 32.9982 215.663 27.9825 214.905 22.927L224.794 21.4435C225.504 26.1775 226.445 30.8742 227.613 35.5167L217.915 37.956ZM213.373 7.67627C213.242 5.12657 213.173 2.57142 213.166 0.0130501L223.166 -0.0130767C223.172 2.38259 223.237 4.77523 223.36 7.16277L213.373 7.67627ZM218.166 4.99999L209.875 4.99999L209.875 -5.00001L218.166 -5.00001L218.166 4.99999ZM193.294 4.99998L176.712 4.99998L176.712 -5.00002L193.294 -5.00002L193.294 4.99998ZM160.131 4.99998L151.84 4.99998L151.84 -5.00002L160.131 -5.00002L160.131 4.99998ZM156.84 -1.8635e-05C156.84 2.32703 156.878 4.65219 156.954 6.97454L146.959 7.30172C146.88 4.87042 146.84 2.43619 146.84 -1.95093e-05L156.84 -1.8635e-05ZM157.866 20.8933C158.323 25.5242 158.93 30.1365 159.687 34.7228L149.821 36.3518C149.028 31.5503 148.392 26.7217 147.915 21.8735L157.866 20.8933ZM162.408 48.4035C163.464 52.9305 164.668 57.4241 166.019 61.8771L156.449 64.7799C155.035 60.1181 153.775 55.4136 152.67 50.6743L162.408 48.4035ZM170.502 75.0855C171.321 77.2601 172.175 79.4229 173.066 81.5728L163.827 85.3996C162.895 83.1489 162 80.8847 161.143 78.608L170.502 75.0855ZM173.066 81.5728C173.956 83.7227 174.881 85.8563 175.84 87.9728L166.732 92.0998C165.728 89.8841 164.759 87.6504 163.827 85.3996L173.066 81.5728ZM182.01 100.483C184.203 104.587 186.529 108.616 188.984 112.563L180.492 117.844C177.922 113.711 175.487 109.493 173.19 105.197L182.01 100.483ZM196.734 124.161C199.441 127.939 202.273 131.63 205.225 135.227L197.495 141.571C194.404 137.805 191.44 133.941 188.605 129.986L196.734 124.161ZM214.422 145.714C216.01 147.41 217.628 149.081 219.273 150.727L212.202 157.798C210.479 156.075 208.786 154.326 207.123 152.55L214.422 145.714ZM219.273 150.727C220.919 152.372 222.59 153.99 224.286 155.578L217.45 162.877C215.674 161.214 213.925 159.521 212.202 157.798L219.273 150.727ZM234.773 164.775C238.37 167.727 242.061 170.559 245.839 173.266L240.014 181.395C236.059 178.56 232.195 175.596 228.429 172.505L234.773 164.775ZM257.437 181.016C261.384 183.471 265.413 185.797 269.517 187.99L264.803 196.81C260.507 194.513 256.289 192.078 252.156 189.508L257.437 181.016ZM282.027 194.16C284.144 195.119 286.277 196.044 288.427 196.934L284.6 206.173C282.35 205.241 280.116 204.272 277.9 203.268L282.027 194.16ZM288.427 196.934C290.577 197.825 292.74 198.679 294.915 199.498L291.392 208.857C289.115 208 286.851 207.105 284.6 206.173L288.427 196.934ZM308.123 203.981C312.576 205.332 317.069 206.536 321.596 207.592L319.326 217.33C314.586 216.225 309.882 214.965 305.22 213.551L308.123 203.981ZM335.277 210.313C339.863 211.07 344.476 211.677 349.107 212.134L348.126 222.085C343.278 221.608 338.45 220.972 333.648 220.179L335.277 210.313ZM363.025 213.046C365.348 213.122 367.673 213.16 370 213.16L370 223.16C367.564 223.16 365.13 223.12 362.698 223.041L363.025 213.046Z" fill="#A79FFF" mask="url(#path-7-inside-4_210_1350)"/>
</g>
</svg>
